<svg id="Layer_1" data-name="Layer 1" xmlns="http://www.w3.org/2000/svg" width="4in" height="4in" viewBox="0 0 288 288"><title>bottles</title><path d="M144.1,272.6A128.4,128.4,0,0,1,22,184.7C-.5,117.4,36,44.5,103.3,22a129.6,129.6,0,0,1,40.8-6.6A128.6,128.6,0,0,1,259,201.5a128.7,128.7,0,0,1-114.9,71.1Zm0-240.2a112.6,112.6,0,0,0-35.4,5.7,111.7,111.7,0,1,0,85.2,6.1A109.9,109.9,0,0,0,144.1,32.4Z" fill="#afbd38"/><path d="M144.1,17.6A126.4,126.4,0,1,1,24.1,184C2.1,117.9,37.9,46.2,104,24.2a125.8,125.8,0,0,1,40.1-6.6m0,240.3a115.2,115.2,0,0,0,35.9-5.8,113.9,113.9,0,1,0-144.1-72c15.9,47.6,60.5,77.8,108.2,77.8m0-244.8v0a130.8,130.8,0,0,0-41.5,6.8C34.1,42.7-3,117,19.8,185.4A130.9,130.9,0,0,0,261,202.6,131,131,0,0,0,144.1,13.1Zm0,240.3A109.3,109.3,0,0,1,46.2,95.1,109.3,109.3,0,1,1,178.6,247.8a109.8,109.8,0,0,1-34.5,5.6Z" fill="#231f20"/><path d="M130.7,129.6l-5.2,6.4a15.6,15.6,0,0,0-1.7,2.5c-1.9-15.8-4.6-25.9-4.9-26.8s8.9,10.5,11.5,16.8A5.3,5.3,0,0,1,130.7,129.6Z" fill="#b7c9cb"/><path d="M194.8,202.2s1.2-67.2-1.5-73.7-11.5-16.9-11.5-16.9,11.7,40.9,4.2,90.6Z" fill="#b7c9cb"/><path d="M167.9,205.6c0,1.7,0,3.3-.1,4.8,0,5.6-.1,9.2-.1,9.2h-8.8c.5-3.1.9-6.2,1.2-9.2s.3-3.2.4-4.8a240.4,240.4,0,0,0-5.7-76.5c.5.6,8.8,10.5,11.4,16.8C168.1,150.5,168.1,185.5,167.9,205.6Z" fill="#b7c9cb"/><path d="M198.3,118.5l-8.9-10.9a9.2,9.2,0,0,1-1.9-5.3l-.3-30.1-.7-1.1,1.2-1.5-1.2-1.8.6-.4V66.3a6.1,6.1,0,0,0-6.1-6.2H169.9a6.2,6.2,0,0,0-6.1,6.2v.9l.5.5-.9,1.1.9,2-.3.9-.7,30.6a8,8,0,0,1-1.9,5.3l-1.1,1.4-.2-19.3-.7-1.1,1.2-1.6-1.2-1.7.6-.5V83.7a6.1,6.1,0,0,0-6.1-6.1H142.8a6.1,6.1,0,0,0-6.1,6.1v.9l.4.5-.8,1.1.9,2-.3.9-.7,30.6h0l-.9-1.3-8.8-10.9a8.6,8.6,0,0,1-1.9-5.3l-.4-30.1-.7-1.1,1.2-1.5-1.1-1.8.5-.4V66.3a6.1,6.1,0,0,0-6.1-6.2H107a6.1,6.1,0,0,0-6.1,6.2v.9l.4.5-.9,1.1,1,2-.4.9-.6,30.6a8.6,8.6,0,0,1-1.9,5.3l-8.8,10.9a24.4,24.4,0,0,0-5.3,15.1V202a8.4,8.4,0,0,0,8.4,8.4h27.4v9a8.5,8.5,0,0,0,8.5,8.5H168a8.5,8.5,0,0,0,8.5-8.5v-9h18.7a8.4,8.4,0,0,0,8.4-8.4V133.6A24.4,24.4,0,0,0,198.3,118.5ZM120.2,151v54.6H92.8a3.6,3.6,0,0,1-3.5-3.6V133.6a18.7,18.7,0,0,1,4.2-12l8.7-11a12.9,12.9,0,0,0,3-8.2l.4-29.2,1.1-2.5-.6-1.3,1.5-1.9-1.7-1.9A1.3,1.3,0,0,1,107,65h11a1.8,1.8,0,0,1,1,.4L117.2,67l1.5,2.4-1,1.3,1.7,2.9.3,28.8a13.5,13.5,0,0,0,3.1,8.3l8.7,10.9a19.9,19.9,0,0,1,2.5,3.9l-3.3,4.1-5.2,6.4a15.6,15.6,0,0,0-1.7,2.5A23.9,23.9,0,0,0,120.2,151Zm51.4,68.4A3.6,3.6,0,0,1,168,223H128.7a3.6,3.6,0,0,1-3.6-3.6V151a18.9,18.9,0,0,1,4.2-12l2.1-2.7,4.2-5.2,2.5-3a15.6,15.6,0,0,0,3-8.3l.4-29.2,1-2.5-.6-1.2,1.5-1.9-1.7-2a1.7,1.7,0,0,1,1.1-.6h11.1a1.5,1.5,0,0,1,.9.4L153,84.4l1.6,2.4-1.1,1.4,1.7,2.8.3,24v4.8a6.9,6.9,0,0,0,.4,2.5,12.9,12.9,0,0,0,2.7,5.8l8.8,10.9a19.5,19.5,0,0,1,4.2,12ZM198.7,202a3.6,3.6,0,0,1-3.5,3.6H176.5V151a23.4,23.4,0,0,0-5.4-15l-8.8-10.9a8.9,8.9,0,0,1-1.9-5.4v-3.1l4.9-6a13.5,13.5,0,0,0,3-8.2l.4-29.2,1-2.5-.5-1.3,1.5-1.9-1.7-1.9a1.1,1.1,0,0,1,1-.6H181a1.3,1.3,0,0,1,.9.4L180.1,67l1.6,2.4-1.1,1.3,1.7,2.9.4,28.8a13.4,13.4,0,0,0,3,8.3l8.8,10.9a19.3,19.3,0,0,1,4.2,12Z" fill="#2a2e34"/><path d="M155.9,154.1a1.8,1.8,0,0,1-1.8,1.8H150V160a1.9,1.9,0,0,1-1.9,1.9,2,2,0,0,1-1.8-1.9v-4.1h-4.1a1.8,1.8,0,1,1,0-3.6h4.1v-4.2a1.9,1.9,0,0,1,1.8-1.8,1.8,1.8,0,0,1,1.9,1.8v4.2h4.1A1.8,1.8,0,0,1,155.9,154.1Z" fill="#2a2e34"/><path d="M148.1,164.6a10.6,10.6,0,0,1,0-21.1,10.6,10.6,0,1,1,0,21.1Zm0-24.7a14.2,14.2,0,1,0,14.2,14.2A14.2,14.2,0,0,0,148.1,139.9Z" fill="#afbd38"/></svg>