<svg id="Layer_1" data-name="Layer 1" xmlns="http://www.w3.org/2000/svg" width="2.4in" height="4.6in" viewBox="0 0 173.6 329.6"><title>bottle-fact</title><path d="M167.6,255.3l-51.5,51.6a2.8,2.8,0,0,1-4,0,2.7,2.7,0,0,1,0-4l51.5-51.6a2.8,2.8,0,0,1,4,0A2.7,2.7,0,0,1,167.6,255.3Z" fill="#afbd38"/><path d="M77.8,210.7,22.1,266.4a2.8,2.8,0,0,1-4-4l55.7-55.8a2.8,2.8,0,0,1,4,0A3,3,0,0,1,77.8,210.7Z" fill="#afbd38"/><path d="M80.8,231.2,14.6,297.4a2.8,2.8,0,0,1-4-4l66.2-66.2a2.8,2.8,0,0,1,4,4Z" fill="#afbd38"/><path d="M81.2,255.2,8,328.3a2.8,2.8,0,0,1-4-4l73.1-73.1a2.8,2.8,0,0,1,4.1,0A2.8,2.8,0,0,1,81.2,255.2Z" fill="#afbd38"/><path d="M96.6,261.4,30.9,327.1a3,3,0,0,1-4.1,0,2.8,2.8,0,0,1,0-4l65.8-65.7a2.8,2.8,0,0,1,4,4Z" fill="#afbd38"/><path d="M118.4,261.2,61.5,318.1a2.8,2.8,0,0,1-4-4l56.9-56.9a2.8,2.8,0,0,1,4,4Z" fill="#afbd38"/><path d="M140.9,260.3,88.8,312.5a2.8,2.8,0,0,1-4-4l52.1-52.2a2.8,2.8,0,0,1,4,4Z" fill="#afbd38"/><path d="M156.3,261.1H88.5A14.5,14.5,0,0,1,74,246.6V128.8A41,41,0,0,1,83.1,103L98.2,84.2a15.5,15.5,0,0,0,3.4-9.2l1-52.3a1.5,1.5,0,0,1,.2-.9h0a2.2,2.2,0,0,0-.1-2.1l-.4-1a2.5,2.5,0,0,1,.3-2.6l.5-.7H103a2.7,2.7,0,0,1-.6-1.7V13A10.6,10.6,0,0,1,112.9,2.4h19A10.6,10.6,0,0,1,142.4,13v.8a2.1,2.1,0,0,1-.9,1.8h-.1l1,1.6a2.3,2.3,0,0,1-.1,2.8h0a2.3,2.3,0,0,0-.1,2.6h0a2,2,0,0,1,.3,1.1l.6,51.1a15.5,15.5,0,0,0,3.4,9.2l15.1,18.7a41.4,41.4,0,0,1,9.2,25.9V246.6A14.5,14.5,0,0,1,156.3,261.1ZM110.7,24.6c-.1.1-.1.3-.2.5l-.6,50a23.2,23.2,0,0,1-5.2,14.3L89.6,108.2a32.8,32.8,0,0,0-7.3,20.6V246.6a6.2,6.2,0,0,0,6.2,6.2h67.8a6.1,6.1,0,0,0,6.1-6.2V128.8a32.8,32.8,0,0,0-7.3-20.6L140,89.4a23.2,23.2,0,0,1-5.2-14.3l-.6-49.2a1.4,1.4,0,0,0-.2-.6l-2-3.4a2.3,2.3,0,0,1,.2-2.4h0a2.1,2.1,0,0,0,.1-2.5l-.8-1.2a2.1,2.1,0,0,1,.3-2.8l1.7-1.4a2.1,2.1,0,0,0-1.6-.8H112.8a1.2,1.2,0,0,0-.9,2l1.4,1.6a1.2,1.2,0,0,1,0,1.6l-1.5,1.8a1.4,1.4,0,0,0-.1,1.4l.4.9a1.4,1.4,0,0,1,.1,1.1Z" fill="#231f20"/><path d="M155.7,246.9s2-115.6-2.6-126.9-22.4-30.8-22.4-30.8,4.9,134.3-23.1,156.6C115.7,245.8,155.7,246.9,155.7,246.9Z" fill="#ecefd2"/></svg>