<svg id="Layer_1" data-name="Layer 1" xmlns="http://www.w3.org/2000/svg" width="4in" height="4in" viewBox="0 0 288 288"><title>business</title><path d="M80.3,245.9H33.5a4.5,4.5,0,0,1-4.5-4.4V89.4a4.5,4.5,0,0,1,4.5-4.5H75.8v9H38V237H75.8v4.5A4.5,4.5,0,0,0,80.3,245.9Z" fill="#2a2e34"/><polygon points="67 93.9 56.5 237 38 237 38 93.9 67 93.9" fill="#ecefd2"/><rect x="45.6" y="99.5" width="23" height="17.56" fill="#afbd38"/><rect x="45.6" y="121.3" width="23" height="17.56" fill="#afbd38"/><rect x="45.6" y="143.4" width="23" height="17.56" fill="#afbd38"/><rect x="45.6" y="165.1" width="23" height="17.56" fill="#afbd38"/><rect x="45.6" y="187.1" width="23" height="17.56" fill="#afbd38"/><path d="M184,38.5H80.3a4.5,4.5,0,0,0-4.5,4.4V241.5a4.5,4.5,0,0,0,4.5,4.4H184a4.4,4.4,0,0,0,4.4-4.4V42.9A4.4,4.4,0,0,0,184,38.5ZM179.5,237H84.7V47.4h94.8Z" fill="#2a2e34"/><path d="M268.4,84.9H196.6a4.5,4.5,0,0,0-4.5,4.5V241.5a4.5,4.5,0,0,0,4.5,4.4h71.8a4.5,4.5,0,0,0,4.5-4.4V89.4A4.5,4.5,0,0,0,268.4,84.9ZM263.9,237H201.1V93.9h62.8Z" fill="#2a2e34"/><rect x="206.9" y="99.5" width="23" height="17.56" fill="#afbd38"/><rect x="206.9" y="165.1" width="23" height="17.55" fill="#afbd38"/><polygon points="230.1 93.7 230.1 93.9 229.7 99.5 206.9 99.5 206.9 117.1 228.4 117.1 228.1 121.3 206.9 121.3 206.9 138.8 226.8 138.8 226.5 143.4 206.9 143.4 206.9 160.9 225.2 160.9 224.9 165.1 206.9 165.1 206.9 182.6 223.6 182.6 223.2 187.1 206.9 187.1 206.9 204.7 222 204.7 219.6 237 219.6 237.2 200.7 237.2 200.7 93.7 230.1 93.7" fill="#ecefd2"/><polygon points="91.6 56.2 91.6 73.7 120.6 73.7 120.2 79.1 91.6 79.1 91.6 96.7 118.9 96.7 118.5 102.1 91.6 102.1 91.6 119.6 117.2 119.6 116.8 125 91.6 125 91.6 142.6 115.5 142.6 115.1 148 91.6 148 91.6 165.6 113.9 165.6 113.5 171 91.6 171 91.6 188.5 112.2 188.5 109.8 220.5 108.7 237 84.7 237 84.7 47.4 122.5 47.4 121.9 56.2 91.6 56.2" fill="#ecefd2"/><polygon points="121.9 56.2 120.6 73.7 91.6 73.7 91.6 56.2 121.9 56.2" fill="#ecefd2"/><rect x="234.5" y="99.5" width="23" height="17.56" fill="#afbd38"/><rect x="234.5" y="121.3" width="23" height="17.56" fill="#afbd38"/><rect x="234.5" y="143.4" width="23" height="17.56" fill="#afbd38"/><rect x="91.6" y="56.2" width="80.7" height="17.55" fill="#afbd38"/><rect x="91.6" y="79.1" width="80.7" height="17.55" fill="#afbd38"/><rect x="91.6" y="102.1" width="80.7" height="17.55" fill="#afbd38"/><rect x="91.6" y="125" width="80.7" height="17.55" fill="#afbd38"/><rect x="91.6" y="148" width="80.7" height="17.55" fill="#afbd38"/><rect x="91.6" y="171" width="80.7" height="17.55" fill="#afbd38"/><rect x="119.8" y="199.1" width="23" height="37.74" fill="#afbd38"/><rect x="206.9" y="121.3" width="23" height="17.55" fill="#afbd38"/><rect x="206.9" y="143.4" width="23" height="17.55" fill="#afbd38"/><rect x="234.5" y="165.1" width="23" height="17.56" fill="#afbd38"/><rect x="234.5" y="187.1" width="23" height="17.56" fill="#afbd38"/><rect x="206.9" y="187.1" width="23" height="17.55" fill="#afbd38"/></svg>