<svg id="Layer_1" data-name="Layer 1" xmlns="http://www.w3.org/2000/svg" width="4in" height="4in" viewBox="0 0 288 288"><title>champs</title><path d="M144.1,272.6A128.4,128.4,0,0,1,22,184.7C-.5,117.4,36,44.5,103.3,22a129.6,129.6,0,0,1,40.8-6.6A128.6,128.6,0,0,1,259,201.5a128.7,128.7,0,0,1-114.9,71.1Zm0-240.2a112.6,112.6,0,0,0-35.4,5.7,111.7,111.7,0,1,0,85.2,6.1A109.9,109.9,0,0,0,144.1,32.4Z" fill="#afbd38"/><path d="M144.1,17.6A126.4,126.4,0,1,1,24.1,184C2.1,117.9,37.9,46.2,104,24.2a125.8,125.8,0,0,1,40.1-6.6m0,240.3a115.2,115.2,0,0,0,35.9-5.8,113.9,113.9,0,1,0-144.1-72c15.9,47.6,60.5,77.8,108.2,77.8m0-244.8v0a130.8,130.8,0,0,0-41.5,6.8C34.1,42.7-3,117,19.8,185.4A130.9,130.9,0,0,0,261,202.6,131,131,0,0,0,144.1,13.1Zm0,240.3A109.3,109.3,0,0,1,46.2,95.1,109.3,109.3,0,1,1,178.6,247.8a109.8,109.8,0,0,1-34.5,5.6Z" fill="#231f20"/><path d="M182.3,91.6l-.4,5.6.7-5.6Z" fill="#231f20"/><path d="M206.6,97.7a14.1,14.1,0,0,0-9.7-4.9l-7.9-.7.7-5.5A12.7,12.7,0,0,0,177,72.3H111.3a12.5,12.5,0,0,0-9.6,4.3,12.1,12.1,0,0,0-3.1,10l.7,5.7-8.3.6a14.1,14.1,0,0,0-12.9,15.2l.4,6A25.7,25.7,0,0,0,104,137.7h2.6c5.4,13.3,16.1,23.3,28.9,26.3v30.5h-2.6A16.6,16.6,0,0,0,116.3,211a4.7,4.7,0,0,0,4.7,4.7h46.3A4.7,4.7,0,0,0,172,211a16.6,16.6,0,0,0-16.6-16.6h-2.6V163.9c12.8-3.1,23.6-13.1,28.9-26.5h.2l2,.2a26,26,0,0,0,16.7-6.2,25.6,25.6,0,0,0,8.8-17.5l.5-5.9A14.1,14.1,0,0,0,206.6,97.7ZM91.7,126.6a18.9,18.9,0,0,1-6.7-13l-.5-6a7.6,7.6,0,0,1,7-8.2l8.2-.7,2.6,32.5A18.5,18.5,0,0,1,91.7,126.6Zm63.7,74.3a10.2,10.2,0,0,1,10,8.4H122.9a10.3,10.3,0,0,1,10-8.4ZM142,193.7V165h4.3v28.7ZM182.6,91.6l-.7,5.6-3.3,26.7c-2.4,19.7-17.2,34.6-34.5,34.6s-32-14.9-34.4-34.6l-4-32.2-.7-5.9a6.4,6.4,0,0,1,6.3-7.1H177a6.2,6.2,0,0,1,4.7,2.2,5.9,5.9,0,0,1,1.6,4.9ZM203,113.4a19.4,19.4,0,0,1-6.6,13.1,19.6,19.6,0,0,1-10.8,4.5l2.6-32.4,8.2.7a7.5,7.5,0,0,1,7.1,8.2Z" fill="#231f20"/><path d="M114.7,131.5,111.2,100a7,7,0,0,1,9.2-7.5c12,4,23.4,4.6,29.6,10.3s16.2,24.1,19.6,32.7a8.4,8.4,0,0,1-2.8,9.9l-8.1,6.2a24.3,24.3,0,0,1-29.1.4l-3.9-2.9A27.4,27.4,0,0,1,114.7,131.5Z" fill="#b7c9cb"/></svg>