<svg id="Layer_1" data-name="Layer 1" xmlns="http://www.w3.org/2000/svg" width="4in" height="4in" viewBox="0 0 288 288"><title>community </title><path d="M84.5,211.2a1.8,1.8,0,0,0-3,0A10.6,10.6,0,0,0,81,222c3.7,6.9,10.8,5.5,13.4,3.2s4.4-5.9-5.5-9C86.7,215.5,85.9,213.3,84.5,211.2Z" fill="#b7c9cb"/><path d="M88.9,229.9a12.5,12.5,0,1,1,12.5-12.5A12.5,12.5,0,0,1,88.9,229.9Zm0-22.3a9.8,9.8,0,1,0,9.8,9.8A9.8,9.8,0,0,0,88.9,207.6Z" fill="#231f20"/><path d="M88.9,231.6A17.4,17.4,0,0,0,71.5,249v1.4h34.9V249A17.5,17.5,0,0,0,88.9,231.6ZM74.2,247.7a14.8,14.8,0,0,1,14.7-13.5,15,15,0,0,1,14.8,13.5Z" fill="#231f20"/><path d="M88,237.8c-5.9-2.5-12.9,3.1-12.9,9.5h26.7C101.8,240.9,98.1,242.1,88,237.8Z" fill="#b7c9cb"/><path d="M199.6,184.1a2.5,2.5,0,0,0-4.3,0,15,15,0,0,0-.9,15.5c5.4,10.1,15.7,8,19.4,4.7s6.3-8.5-7.9-13C202.8,190.3,201.6,187.2,199.6,184.1Z" fill="#b7c9cb"/><path d="M205.9,211a18,18,0,1,1,18-17.9A18,18,0,0,1,205.9,211Zm0-32.1a14.2,14.2,0,1,0,14.2,14.2A14.2,14.2,0,0,0,205.9,178.9Z" fill="#231f20"/><path d="M231.1,240.6H180.7v-1.9a25.2,25.2,0,1,1,50.4,0Zm-46.5-3.9h42.6a21.4,21.4,0,0,0-42.6,0Z" fill="#231f20"/><path d="M204.5,222.5c-8.4-3.6-18.5,4.5-18.5,13.6h38.5C224.5,227,219.1,228.7,204.5,222.5Z" fill="#b7c9cb"/><path d="M177.8,72.9A77.4,77.4,0,0,0,138.9,28a78.6,78.6,0,0,0-34.7-8.2A77.7,77.7,0,1,0,161.4,150a73,73,0,0,0,4.9-5.9,84.2,84.2,0,0,0,7.3-11.9A76.9,76.9,0,0,0,177.8,72.9Zm-11,55.9a69.8,69.8,0,0,1-40.5,35.1,68.2,68.2,0,0,1-22.1,3.6A70,70,0,0,1,82,31.1a70,70,0,0,1,53.5,3.8,70,70,0,0,1,31.3,93.9Z" fill="#afbd38"/><path d="M170.6,75.4a70,70,0,0,0-66.4-47.9A68.3,68.3,0,0,0,82,31.1a70,70,0,0,0,22.2,136.4,68.2,68.2,0,0,0,22.1-3.6,70,70,0,0,0,44.3-88.5Zm-7.9,51.4a64.8,64.8,0,0,1-37.8,32.8,66.5,66.5,0,0,1-20.7,3.4A65.5,65.5,0,0,1,83.5,35.4,66.5,66.5,0,0,1,104.2,32a65.5,65.5,0,0,1,58.5,94.8Z" fill="#231f20"/><path d="M258.7,193.1a53.9,53.9,0,0,0-27.3-31.4,52.9,52.9,0,0,0-24.2-5.8,54.5,54.5,0,0,0-17.3,2.8,61.1,61.1,0,0,0-6.4,2.6,59,59,0,0,0-6.9,4A52.6,52.6,0,0,0,158.5,186a53.9,53.9,0,0,0-3,41.5l.3.7a48.8,48.8,0,0,0,4.1,9,54.4,54.4,0,0,0,98.8-44.1Zm-9.8,38.1a46.2,46.2,0,0,1-27,23.4,45.1,45.1,0,0,1-14.8,2.5A46.8,46.8,0,0,1,192.3,166a45.3,45.3,0,0,1,14.9-2.5,46.7,46.7,0,0,1,41.7,67.7Z" fill="#afbd38"/><path d="M104.9,250.4h1.5v-1.3Zm-33.4,0h1.4a8.6,8.6,0,0,1-1.4-1.3Zm33.4,0h1.5v-1.3Zm-33.4,0h1.4a8.6,8.6,0,0,1-1.4-1.3Zm33.4,0h1.5v-1.3Zm-33.4,0h1.4a8.6,8.6,0,0,1-1.4-1.3Zm33.4,0h1.5v-1.3Zm-33.4,0h1.4a8.6,8.6,0,0,1-1.4-1.3Zm33.4,0h1.5v-1.3Zm-33.4,0h1.4a8.6,8.6,0,0,1-1.4-1.3Zm33.4,0h1.5v-1.3Zm-33.4,0h1.4a8.6,8.6,0,0,1-1.4-1.3Zm33.4,0h1.5v-1.3Zm-33.4,0h1.4a8.6,8.6,0,0,1-1.4-1.3Zm33.4,0h1.5v-1.3Zm-33.4,0h1.4a8.6,8.6,0,0,1-1.4-1.3Z" fill="#231f20"/><path d="M263,191.7a58.5,58.5,0,0,0-29.5-34.1,57.9,57.9,0,0,0-26.3-6.3,59.1,59.1,0,0,0-18.7,3.1,52.9,52.9,0,0,0-8.4,3.5l-10.6-10.5a84.6,84.6,0,0,0,8.2-13.1A82.1,82.1,0,0,0,140.9,24a80.9,80.9,0,0,0-36.7-8.7,82.3,82.3,0,0,0-26,4.2c-43,14.4-66.4,61-52,104a82.3,82.3,0,0,0,78,56.2,82.1,82.1,0,0,0,60.4-26.4l8.7,8.7a59.1,59.1,0,0,0-22.4,66.2H131.2A39.7,39.7,0,0,0,129,217a42.2,42.2,0,0,0-53.5-26.7,42.3,42.3,0,0,0,13.4,82.4,43.6,43.6,0,0,0,13.4-2.1,41.7,41.7,0,0,0,24.4-21.3,40.1,40.1,0,0,0,4-12.1h24A58.9,58.9,0,0,0,263,191.7ZM161.4,150A77.7,77.7,0,1,1,104.2,19.8,78.6,78.6,0,0,1,138.9,28a77.7,77.7,0,0,1,34.7,104.2,84.2,84.2,0,0,1-7.3,11.9A73,73,0,0,1,161.4,150ZM126,237.2a36.3,36.3,0,0,1-3.3,10.1,37.6,37.6,0,0,1-21.9,18.9,35,35,0,0,1-11.9,2,37.8,37.8,0,0,1-12-73.6,37.4,37.4,0,0,1,28.9,2,37.9,37.9,0,0,1,18.9,21.9,36.3,36.3,0,0,1,1.9,9.7A34.1,34.1,0,0,1,126,237.2Zm98.3,24.7a54.2,54.2,0,0,1-64.4-24.7,48.8,48.8,0,0,1-4.1-9l-.3-.7a53.9,53.9,0,0,1,3-41.5,52.6,52.6,0,0,1,18.1-20.7,59,59,0,0,1,6.9-4,61.1,61.1,0,0,1,6.4-2.6,54.5,54.5,0,0,1,17.3-2.8,52.9,52.9,0,0,1,24.2,5.8,53.9,53.9,0,0,1,27.3,31.4A54.5,54.5,0,0,1,224.3,261.9Z" fill="#231f20"/><path d="M251.5,195.5a47.1,47.1,0,0,0-44.3-32,45.3,45.3,0,0,0-14.9,2.5,46.8,46.8,0,0,0,14.8,91.1,45.1,45.1,0,0,0,14.8-2.5,46.8,46.8,0,0,0,29.6-59.1Zm-44.4,57a42.2,42.2,0,0,1-13.3-82.2,40.5,40.5,0,0,1,13.4-2.2,42.2,42.2,0,0,1,37.6,61.1,42.1,42.1,0,0,1-24.4,21.1A40.3,40.3,0,0,1,207.1,252.5Z" fill="#231f20"/><path d="M126.6,228.2a36.3,36.3,0,0,0-1.9-9.7,37.9,37.9,0,0,0-18.9-21.9,37.4,37.4,0,0,0-28.9-2,37.8,37.8,0,0,0,12,73.6,35,35,0,0,0,11.9-2,37.6,37.6,0,0,0,21.9-18.9,36.3,36.3,0,0,0,3.3-10.1A34.1,34.1,0,0,0,126.6,228.2Zm-10.8,15.7A29.5,29.5,0,0,1,98.4,259a28.3,28.3,0,0,1-9.5,1.6,30.2,30.2,0,0,1-9.5-58.8,30.4,30.4,0,0,1,23,1.7,30,30,0,0,1,13.4,40.4Z" fill="#afbd38"/><path d="M117.5,220.9a30.2,30.2,0,0,0-15.1-17.4,30.4,30.4,0,0,0-23-1.7,30.2,30.2,0,0,0,9.5,58.8,28.3,28.3,0,0,0,9.5-1.6,29.5,29.5,0,0,0,17.4-15.1A30.1,30.1,0,0,0,117.5,220.9Zm-11.1,29.5h-1.5a27.4,27.4,0,0,1-7.9,4.3,28,28,0,0,1-8.1,1.3,25.7,25.7,0,0,1-16-5.6H71.5v-1.3a24.8,24.8,0,0,1-6.9-10.6A25.9,25.9,0,0,1,66,219a25.3,25.3,0,0,1,14.8-12.8,25.6,25.6,0,0,1,8.1-1.4,25.9,25.9,0,0,1,24.2,17.5,25.7,25.7,0,0,1-1.3,19.6,27.2,27.2,0,0,1-5.4,7.2Z" fill="#231f20"/><path d="M93.2,59.5a3.7,3.7,0,0,0-6.2.1c-2.9,4.7-6,12.8-1.2,22,7.6,14.2,22.2,11.3,27.5,6.6s9-12-11.2-18.5C97.7,68.3,96,63.9,93.2,59.5Z" fill="#b7c9cb"/><path d="M102.1,96.9a24.7,24.7,0,1,1,24.6-24.6A24.7,24.7,0,0,1,102.1,96.9Zm0-45.5a20.9,20.9,0,1,0,20.8,20.9A21,21,0,0,0,102.1,51.4Z" fill="#231f20"/><path d="M136.9,138.7H67.2v-1.9a34.9,34.9,0,0,1,69.7,0Zm-65.8-3.8h62a31.1,31.1,0,0,0-62,0Z" fill="#231f20"/><path d="M100.2,113.9c-12-5.1-26.3,6.4-26.3,19.4h54.5C128.4,120.3,120.8,122.7,100.2,113.9Z" fill="#b7c9cb"/></svg>
