<svg id="Layer_1" data-name="Layer 1" xmlns="http://www.w3.org/2000/svg" width="1.4in" height="1.4in" viewBox="0 0 100 100"><title>map-marker</title><path d="M67.7,14.8C43.9,12.2,17,7.7,14.7,7.9s-7.3,0-11.2,5.3S2.8,29.3,6.2,31.5,22,35.4,38.3,36.8c.7,5.9,1.1,30.7,1.3,39.4a9.6,9.6,0,0,0,1.5,4.6l7.6,11.3,7-10.2a8.9,8.9,0,0,0,1.5-5c0-7.9-.2-29.5.3-36.6,5.2.5,23.3,2.8,23.3,2.8s16.9,3.1,17.4-11.3S90.6,17.2,67.7,14.8ZM86.8,40.3c-16.4-1.4-32.6-3.5-32.6-3.5l.2,25.6c0,.3.6,17.8-5.4,17.8-8,0-6.3-11.7-6.6-16.5L41.3,33.5,13.2,30.7S3,30,5,18.4c1.2-7.2,6.7-8.2,9.6-7.8S80.7,20.4,89.4,21C96.3,22.1,99.3,39.4,86.8,40.3Z" fill="#231f20"/><path d="M13.9,12.9H12.3c.7.1,1.4-.1,1.8.1Z" fill="#fff"/><path d="M89.4,21c-8.7-.6-71.6-10-74.8-10.4s-8.4.6-9.6,7.8C3,30,13.2,30.7,13.2,30.7l28.1,2.8,1.1,30.2c.3,4.8-1.4,16.5,6.6,16.5,6,0,5.4-17.5,5.4-17.8l-.2-25.6s16.2,2.1,32.6,3.5C99.3,39.4,96.3,22.1,89.4,21Zm-.3,15.5h-4L48.2,32.1a20.2,20.2,0,0,1,0,4.3c-1.5,2.5-.8,3.9-.4,4.3s2.4.2,3.8.8.7,2-1.9,2.5c-5.3,1.5.3,3.1.3,3.1,4.2,1.5,4.3,4.7,1.9,5.5s-3.2.5-3.6.2,2.5-1,2.1-2.5-5.7-1.5-6-2.8,1.2-2.9,1.3-4.3-1.7-1.3-.7-6-.1-5.3-.1-5.3S12.1,29.5,9.5,27.3s-2.3-3.2-2.2-5.4v-.4a3.8,3.8,0,0,1,.1-1,.8.8,0,0,1,.1-.4,19.4,19.4,0,0,1,.5-2c0-.1.1-.2.1-.4s.1-.2.2-.4a1.4,1.4,0,0,1,.2-.6,10.2,10.2,0,0,1,.8-1.5l.2-.3.4-.5h0l.3-.4a3.9,3.9,0,0,1,1.9-1h2.1l.4.2.3.2.2.2h.4l.2.4a.5.5,0,0,1,.2.4.8.8,0,0,1,.2.5.6.6,0,0,1,.1.4.9.9,0,0,1,.1.5c.5,2.5-2.2,2.9-2.7,5.3s4.7,4.8,6.3,5.3,10.4.7,13.7,1S53.3,30,53.3,30l36,4.8Z" fill="#fafafa"/><path d="M53.3,30s-16.5-2.2-19.7-2.4-12-.6-13.7-1-6.9-2-6.3-5.3,3.2-2.8,2.7-5.3a.9.9,0,0,0-.1-.5.6.6,0,0,0-.1-.4.8.8,0,0,0-.2-.5.5.5,0,0,0-.2-.4l-.2-.4h-.4l-.2-.2-.7-.4H12.3a9.4,9.4,0,0,0-1.5.6l-.3.2-.3.2-.3.4h0l-.4.5-.2.3a10.2,10.2,0,0,0-.8,1.5c-.1.2-.1.4-.2.6s-.1.3-.2.4-.1.3-.1.4a19.4,19.4,0,0,0-.5,2,.8.8,0,0,0-.1.4,3.8,3.8,0,0,0-.1,1v.4c-.1,2.2.5,4.3,2.2,5.4s35.4,4.6,35.4,4.6,1.1.7.1,5.3.7,4.6.7,6-1.7,2.2-1.3,4.3,5.5,1.5,6,2.8-2.4,2.2-2.1,2.5,1.3.5,3.6-.2,2.3-4-1.9-5.5c0,0-5.6-1.6-.3-3.1,2.6-.5,2.3-2.1,1.9-2.5s-3.3-.3-3.8-.8-1.1-1.8.4-4.3a20.2,20.2,0,0,0,0-4.3l36.9,4.4h4l.2-1.7Z" fill="#fff"/><path d="M89.3,34.8l-.2,1.7h-4L48.2,32.1a20.2,20.2,0,0,1,0,4.3c-1.5,2.5-.8,3.9-.4,4.3s2.4.2,3.8.8.7,2-1.9,2.5c-5.3,1.5.3,3.1.3,3.1,4.2,1.5,4.3,4.7,1.9,5.5s-3.2.5-3.6.2,2.5-1,2.1-2.5-5.7-1.5-6-2.8,1.2-2.9,1.3-4.3-1.7-1.3-.7-6-.1-5.3-.1-5.3S12.1,29.5,9.5,27.3s-2.3-3.2-2.2-5.4v-.4a3.8,3.8,0,0,1,.1-1,.8.8,0,0,1,.1-.4,19.4,19.4,0,0,1,.5-2c0-.1.1-.2.1-.4s.1-.2.2-.4.1-.4.2-.6a10.2,10.2,0,0,1,.8-1.5l.2-.3.4-.5h0l.6-.6.3-.2a3.8,3.8,0,0,1,1.3-.6h2.1l.4.2.3.2.2.2h.4l.2.4a.5.5,0,0,1,.2.4.8.8,0,0,1,.2.5.6.6,0,0,1,.1.4.9.9,0,0,1,.1.5c.5,2.5-2.2,2.9-2.7,5.3s4.7,4.8,6.3,5.3,10.4.7,13.7,1S53.3,30,53.3,30Z" fill="#231f20"/></svg>