<svg id="Layer_1" data-name="Layer 1" xmlns="http://www.w3.org/2000/svg" width="4in" height="4in" viewBox="0 0 288 288"><title>residency</title><path d="M181,136.1l-13.1,13.8-5.8,5.9-.5-.5v1.2l.6-.6,5.7-6,13.2-13.7Zm-19.4-15v6l5.7-6Z" fill="#afbd38"/><path d="M180.7,159.6V172H170.5v-2.2a11.3,11.3,0,0,1,.5-3.2c.1-.4.3-.7.4-1.1a10.2,10.2,0,0,1,4.2-4.5l2-1A11,11,0,0,1,180.7,159.6Z" fill="#ecefd2"/><path d="M212.1,92.9,225,106.3l.4.2ZM174.4,54.2l-44.5,46.6,44.6-46.5Z" fill="#2a2e34"/><path d="M151.8,166.6h0l-7.8,8.2h0l7.8-8.1h0Zm80.4-64.7L177.8,45.1a4.4,4.4,0,0,0-6,0L119.6,99.6l5.7,5.9,4.6-4.7,44.5-46.6h.1l.3-.3,37.3,38.9,13.3,13.6-.4-.2V152l8.3,8.6V104.8A4,4,0,0,0,232.2,101.9Zm-21.3,64.7h-.2l8,8.2Z" fill="#2a2e34"/><polygon points="225.4 106.5 225 106.3 186 87.4 175.8 82.4 174.1 81.6 169 79.1 161.6 75.5 125.5 105.6 125.4 105.5 129.9 100.8 174.4 54.2 174.5 54.3 212.1 92.9 225.4 106.5" fill="#ecefd2"/><path d="M101.2,110.4l-2.3,2.4h-.1l2.3-2.5Z" fill="#2a2e34"/><path d="M252.7,111.8a4.4,4.4,0,0,1-2.9,1.1,3.9,3.9,0,0,1-2.9-1.3L174.8,36.5,117,96.8l-5.8-6,60.6-63.2a4.3,4.3,0,0,1,6,0l75,78.3A4.2,4.2,0,0,1,252.7,111.8Z" fill="#2a2e34"/><path d="M174.1,77.7V90.2H163.9V87.9a10.2,10.2,0,0,1,10.2-10.2Z" fill="#afbd38"/><rect x="163.9" y="91.8" width="10.3" height="12.45" fill="#afbd38"/><path d="M186,87.9v2.3H175.8V77.7h0A10.2,10.2,0,0,1,186,87.9Z" fill="#afbd38"/><rect x="175.8" y="91.8" width="10.3" height="12.45" fill="#afbd38"/><path d="M109.3,193.5a4.1,4.1,0,1,1-5.9-5.7l10.1-10.6H88.3v45.5h26.8V187.4ZM94.7,203a1.9,1.9,0,0,1-1.4,1.3A1.9,1.9,0,0,1,91,202a1.9,1.9,0,0,1,1.4-1.3A1.9,1.9,0,0,1,94.7,203Z" fill="#afbd38"/><path d="M101.1,110.3l-2.3,2.5L56.6,157l42.3-44.2,2.3-2.4ZM138.8,149l.9.9h0Z" fill="#2a2e34"/><path d="M151.8,166.6Zm7.6-7.9-7.5,7.9h0l7.5-7.9Z" fill="#2a2e34"/><path d="M139.7,149.9l-4.4,4.6-10.8-5.3-8.3-4-3.5-1.7a10.2,10.2,0,0,0-10.2-9.7h0v4.7l-1.7-.8v-3.9a10,10,0,0,0-5.1,1.4l-7.4-3.6-37.1,31h0l5.4-5.6,42.3-44.2,2.3-2.4.3-.3,1.4,1.4,13.3,13.9,8.3,8.6,14.3,15Z" fill="#ecefd2"/><path d="M145.4,143.9l-5.7,6-.9-.9-14.3-15-8.3-8.6-13.3-13.9-1.4-1.4-.3.3h-.1l-2.3,2.5L56.6,157l-5.4,5.6v60.1h71.6V231H47a4.2,4.2,0,0,1-4.1-4.2V160.9a3.8,3.8,0,0,1,1.2-2.8l54.4-56.8a3.9,3.9,0,0,1,3-1.3h.9a4.5,4.5,0,0,1,2.1,1.2l4.1,4.2,7.6,8,8.3,8.6Z" fill="#2a2e34"/><polygon points="101.2 110.4 98.9 112.8 56.6 157 98.8 112.8 101.1 110.3 101.2 110.4" fill="#ecefd2"/><polygon points="139.7 149.9 139.7 149.9 138.8 149 139.7 149.9" fill="#ecefd2"/><path d="M153.8,135.2l-5.7,6-23.6-24.7-8.3-8.6-5-5.2-5.7-5.9-4-4.2L29.4,167.8a4.1,4.1,0,1,1-5.9-5.8l75-78.2a4.1,4.1,0,0,1,6,0l6.7,7,5.8,6,2.6,2.8,5.7,5.9h.2Z" fill="#2a2e34"/><polygon points="167.9 149.9 162.2 155.9 162.1 155.8 167.9 149.9 167.9 149.9" fill="#2a2e34"/><path d="M100.8,133.8v12.5H90.6v-2.2a10.2,10.2,0,0,1,5.1-8.9A10,10,0,0,1,100.8,133.8Z" fill="#afbd38"/><rect x="90.6" y="147.9" width="10.3" height="12.45" fill="#afbd38"/><path d="M112.8,144.1v2.2H102.5V133.8h0a10.2,10.2,0,0,1,10.2,9.7C112.7,143.7,112.8,143.9,112.8,144.1Z" fill="#afbd38"/><rect x="102.5" y="147.9" width="10.3" height="12.45" fill="#afbd38"/><path d="M168.2,202.9v45.5H195V202.9Zm6.4,25.8a2,2,0,0,1-1.4,1.4,1.9,1.9,0,0,1-2.3-2.3,2,2,0,0,1,1.4-1.4A1.9,1.9,0,0,1,174.6,228.7Z" fill="#afbd38"/><path d="M181,136.1l-13.1,13.8-5.8,5.9-.5.6-2.2,2.3-7.5,7.9h-.1l-7.8,8.2-7.5,7.9,7.5-7.9,7.8-8.1h.1l7.5-7.9,2.2-2.2.6-.6,5.7-6,13.2-13.7Zm37.8,38.7,12.8,13.4.4.2Z" fill="#2a2e34"/><path d="M151.8,166.6Zm9.8-11.3v1.1l.5-.6Z" fill="#2a2e34"/><path d="M218.8,174.8l12.8,13.4.4.2Zm-7.9-8.2h-.2l8,8.2ZM181,136.1l-13.1,13.8-5.8,5.9-.5-.5v1.1l-2.2,2.3-7.5,7.9h-.1l-7.8,8.2-7.5,7.9,7.5-7.9,7.8-8.1h.1l7.5-7.9,2.2-2.2.6-.6,5.7-6,13.2-13.7Zm-49.9,52.2h0l5.4-5.6Zm107.7-4.5-8.7-9.1-7.8-8.1-33.9-35.4-4-4.2a4.1,4.1,0,0,0-6,0l-16.2,16.9-.6.7-5.1,5.3-2.7,2.8-5.7,5.9h0l-1.4,1.3-6.2,6.6-7.9,8.2-8.6,9a4,4,0,0,0-1.2,2.9v65.9a4.1,4.1,0,0,0,4.1,4.1h109a4.1,4.1,0,0,0,4.1-4.1V186.7A4,4,0,0,0,238.8,183.8Zm-7.1,64.6H131.1V188.3l5.4-5.6,7.5-7.9,7.8-8.1h.1l7.5-7.9,2.2-2.2.6-.6,5.7-6,13.2-13.7,7.3,7,22.5,23.4h-.2l8,8.2h.1l12.8,13.4h.1Z" fill="#2a2e34"/><path d="M180.7,172H170.5v-2.2a11.3,11.3,0,0,1,.5-3.2c.1-.4.3-.7.4-1.1a10.2,10.2,0,0,1,4.2-4.5l2-1a11,11,0,0,1,3.1-.4Z" fill="#afbd38"/><rect x="170.5" y="173.7" width="10.3" height="12.45" fill="#ecefd2"/><path d="M192.6,172H182.4V159.6h0a10.4,10.4,0,0,1,6,1.9,10.6,10.6,0,0,1,3.7,5.1,7.5,7.5,0,0,1,.5,2.6V172Z" fill="#ecefd2"/><rect x="182.4" y="173.7" width="10.3" height="12.45" fill="#ecefd2"/><path d="M168.2,202.9v45.5H195V202.9Zm6.4,25.8a2,2,0,0,1-1.4,1.4,1.9,1.9,0,0,1-2.3-2.3,2,2,0,0,1,1.4-1.4A1.9,1.9,0,0,1,174.6,228.7Z" fill="#afbd38"/><path d="M231.6,188.2l-27.5-13.4-11.5-5.6a7.5,7.5,0,0,0-.5-2.6,10.6,10.6,0,0,0-3.7-5.1,10.4,10.4,0,0,0-6-1.9h0v4.7l-1.7-.8v-3.9a11,11,0,0,0-3.1.4l-2,1-7.4-3.6-2.5,2.1-4.1,3.4-1.5,1.2-2.9,2.5-5.4,4.4-4.5,3.8-16.2,13.6h0l5.4-5.6,7.5-7.9,7.8-8.1h.1l7.5-7.9,2.2-2.2.6-.6,5.7-6,13.2-13.7,7.3,7,22.5,23.4h-.2l8,8.2h.1Z" fill="#ecefd2"/><polygon points="181.1 136.2 167.9 149.9 162.2 155.9 161.6 156.5 159.4 158.7 151.9 166.6 151.8 166.7 144 174.8 136.5 182.7 144 174.8 151.8 166.6 151.9 166.6 159.4 158.7 161.6 156.4 162.1 155.8 167.9 149.9 181 136.1 181.1 136.2" fill="#ecefd2"/><polygon points="232 188.4 231.6 188.2 218.8 174.8 232 188.4" fill="#ecefd2"/><path d="M259.3,193.6a4,4,0,0,1-5.8-.1l-20.4-21.3-8-8.2-36.7-38.3-4.4-4.6-2.6-2.8-2.6,2.8L161.6,139l-2.1,2.2-5.7,5.9-2.7,2.8-5.6,5.9h-.1l-2.3,2.4-8,8.3-7.9,8.2-12.1,12.6-5.8,6.1a4.1,4.1,0,1,1-5.9-5.7l10.1-10.6,3.7-3.8,7.3-7.6,10.8-11.3,4.4-4.6h0l5.7-6,2.7-2.7,5.7-6,7.8-8.1,5.7-6,11.1-11.6a4.1,4.1,0,0,1,6,0L225.1,152l8.3,8.6,26,27.2A4.1,4.1,0,0,1,259.3,193.6Z" fill="#2a2e34"/><rect x="170.5" y="173.7" width="10.3" height="12.45" fill="#afbd38"/><path d="M192.6,169.8V172H182.4V159.6h0a10.4,10.4,0,0,1,6,1.9,10.6,10.6,0,0,1,3.7,5.1,7.5,7.5,0,0,1,.5,2.6Z" fill="#afbd38"/><rect x="182.4" y="173.7" width="10.3" height="12.45" fill="#afbd38"/></svg>