<svg id="Layer_1" data-name="Layer 1" xmlns="http://www.w3.org/2000/svg" width="4in" height="4in" viewBox="0 0 288 288"><title>restaurants</title><path d="M206.9,156.9v39.6H182.8V166a17.5,17.5,0,0,0,1.4-5.1,18,18,0,0,0,.1-4Z" fill="#afbd38"/><path d="M252.6,138.9v15.6l-67.4-12a18.6,18.6,0,0,0,9.9-5.6,18.8,18.8,0,0,0,27.7,0,18.9,18.9,0,0,0,13.8,6.1,19.1,19.1,0,0,0,13.9-6.1A13.4,13.4,0,0,0,252.6,138.9Z" fill="#ecefd2"/><path d="M182.8,196.5Z" fill="#2a2e34"/><path d="M128.2,174.6v.4a19.8,19.8,0,0,0,9.4,2.7v-.5A18.7,18.7,0,0,1,128.2,174.6ZM282,117.5c-1.1-3.1-10.8-23.4-10.8-23.4a4.8,4.8,0,0,0-4.7-4H169a4.5,4.5,0,0,1,1.6,3.5v5.8h91.8s9.1,17.5,10.6,20.8a11.1,11.1,0,0,1,.7,3.7,9.1,9.1,0,0,1-1.4,4.9,9.5,9.5,0,0,1-8,4.4,9.1,9.1,0,0,1-2.3-.3,9.4,9.4,0,0,1-5.6-4.1h0a5.6,5.6,0,0,0-3.8-2.4h-3.7a5,5,0,0,0-4.2,2.2v.2a9.4,9.4,0,0,1-15.9,0v-.2a5,5,0,0,0-4.2-2.2h-3a5.4,5.4,0,0,0-4.5,2.4h0a9.4,9.4,0,0,1-15.9,0h0a5.4,5.4,0,0,0-4.5-2.4h-2.8a5.4,5.4,0,0,0-4.5,2.4h0a9.4,9.4,0,0,1-15.9,0h0a3.8,3.8,0,0,0-1.4-1.4,3.5,3.5,0,0,1,.5,1.3l6.4,13.7h2.5a16.7,16.7,0,0,0,3.9-.4,18.6,18.6,0,0,0,9.9-5.6,19,19,0,0,0,27.7,0,18.8,18.8,0,0,0,13.8,6,19,19,0,0,0,13.9-6,13.4,13.4,0,0,0,2.1,2v57.2H163.2V205h94.1a4.7,4.7,0,0,0,4.7-4.7V142.4a20.1,20.1,0,0,0,4.9,0A18.9,18.9,0,0,0,283,126.2,18.2,18.2,0,0,0,282,117.5Z" fill="#2a2e34"/><path d="M184.3,156.9a18.9,18.9,0,0,0-1.1-4.7c-.4-1.2-2.3-5.4-4.4-9.8l-6.4-13.7a3.5,3.5,0,0,0-.5-1.3,4.5,4.5,0,0,0-4.2-2.7H23.2a4.7,4.7,0,0,0-4.7,4s-8.9,22.7-9.3,24.2a17.6,17.6,0,0,0-.7,8.3,18.6,18.6,0,0,0,16,15.8,16.2,16.2,0,0,0,4.9.1V235a4.7,4.7,0,0,0,4.7,4.7H158.5a4.7,4.7,0,0,0,4.7-4.7V177.1a16.1,16.1,0,0,0,4.9-.1,18.8,18.8,0,0,0,10.1-4.6,19.8,19.8,0,0,0,4.6-6.4,17.5,17.5,0,0,0,1.4-5.1A18,18,0,0,0,184.3,156.9Zm-30.5,73.4H38.8V173.2a13.4,13.4,0,0,0,2.1-2,19,19,0,0,0,13.9,6,18.6,18.6,0,0,0,13.8-6,18.4,18.4,0,0,0,8.2,5.1,17.9,17.9,0,0,0,5.7.9,18.1,18.1,0,0,0,4-.4,18.6,18.6,0,0,0,9.8-5.6,19,19,0,0,0,13.9,6,18.8,18.8,0,0,0,13.8-6,20.2,20.2,0,0,0,4.2,3.4,18.7,18.7,0,0,0,9.4,2.6h.2a18.1,18.1,0,0,0,13-5.2l.9-.8a6,6,0,0,0,.8.8l1.3,1.2Zm19.7-66.8a9.5,9.5,0,0,1-8,4.4,9.1,9.1,0,0,1-2.3-.3l-1.8-.7a8.9,8.9,0,0,1-2.9-2.2,9.4,9.4,0,0,1-.9-1.2h0a5.6,5.6,0,0,0-3.8-2.4h-3.7a5,5,0,0,0-4.2,2.3v.2a9.5,9.5,0,0,1-4.1,3.6,10.1,10.1,0,0,1-3.9.8h-.2a9.4,9.4,0,0,1-7.7-4.4v-.2a5.7,5.7,0,0,0-1.6-1.5,5,5,0,0,0-2.6-.8h-3a5.5,5.5,0,0,0-4.5,2.5h0a9.4,9.4,0,0,1-15.9,0h0a5.5,5.5,0,0,0-4.5-2.5H94.9a5.5,5.5,0,0,0-4.5,2.5h0a9.4,9.4,0,0,1-7.9,4.4,9.5,9.5,0,0,1-8-4.4h0A5.4,5.4,0,0,0,70,161H67.2a5.5,5.5,0,0,0-4.5,2.5h0a9.4,9.4,0,0,1-7.9,4.4,9.5,9.5,0,0,1-8-4.4v-.2a5,5,0,0,0-4.2-2.3h-4a3.7,3.7,0,0,0-3.2,2l-.3.5a9.1,9.1,0,0,1-5.6,4.1,8.5,8.5,0,0,1-2.3.3,9.4,9.4,0,0,1-7.9-4.4,8.4,8.4,0,0,1-1.5-5,13.5,13.5,0,0,1,.4-2.8c.6-1.7,9.1-21.6,9.1-21.6H163.6s.9,1.6,2.1,4,1.6,3,2.4,4.7c2.6,4.9,5.3,10.4,6.1,12.1s.3,1,.5,1.5a14.9,14.9,0,0,1,.2,2.1A9.2,9.2,0,0,1,173.5,163.5Z" fill="#2a2e34"/><rect x="112.3" y="191.5" width="16.8" height="13.08" fill="#afbd38"/><rect x="132" y="191.6" width="16.8" height="13.09" fill="#afbd38"/><rect x="230.7" y="156.9" width="16.8" height="13.09" fill="#afbd38"/><rect x="211" y="156.9" width="16.8" height="13.09" fill="#afbd38"/><rect x="211.2" y="172.7" width="16.8" height="13.09" fill="#afbd38"/><rect x="230.7" y="172.7" width="16.8" height="13.09" fill="#afbd38"/><path d="M151.2,172a18.3,18.3,0,0,1-9.3,5.2v-.4a18.5,18.5,0,0,0,8.9-4.8Z" fill="#afbd38"/><path d="M153.8,173.2v.3a11.4,11.4,0,0,1-1.7-1.5h.4Z" fill="#afbd38"/><path d="M178.2,172.4V185h-15v-7.9a16.1,16.1,0,0,0,4.9-.1A18.8,18.8,0,0,0,178.2,172.4Z" fill="#afbd38"/><path d="M264.7,54.2H121.8a4.7,4.7,0,0,0-4.7,4.7V81.8a4.7,4.7,0,0,0,4.7,4.7H264.7a4.7,4.7,0,0,0,4.7-4.7V58.9A4.7,4.7,0,0,0,264.7,54.2ZM260,77.1H126.5V63.6H260Z" fill="#2a2e34"/><rect x="84" y="191.6" width="24.1" height="38.83" fill="#afbd38"/><path d="M76.8,176.3l-38,6.1v-9.2a13.4,13.4,0,0,0,2.1-2,19,19,0,0,0,13.9,6,18.6,18.6,0,0,0,13.8-6A18.4,18.4,0,0,0,76.8,176.3Z" fill="#ecefd2"/><path d="M153.8,173.2v15.6l-16.2-2.9-9.4-1.6-41.7-7.4a19.5,19.5,0,0,0,9.8-5.7,19.1,19.1,0,0,0,13.9,6.1,18.9,18.9,0,0,0,13.8-6.1,17.4,17.4,0,0,0,4.2,3.4,18.7,18.7,0,0,0,9.4,2.7h.2a18.4,18.4,0,0,0,4.1-.5,18.2,18.2,0,0,0,9.3-5.1h.9Z" fill="#ecefd2"/><path d="M152.1,172h-.9l.5-.4Z" fill="#ecefd2"/><rect x="112.5" y="207.4" width="16.8" height="13.09" fill="#afbd38"/><rect x="132" y="207.4" width="16.8" height="13.09" fill="#afbd38"/><rect x="62.6" y="191.1" width="16.8" height="12.99" fill="#afbd38"/><rect x="42.9" y="191" width="16.8" height="12.99" fill="#afbd38"/><rect x="43.1" y="206.7" width="16.8" height="12.99" fill="#afbd38"/><rect x="62.6" y="206.7" width="16.8" height="12.99" fill="#afbd38"/><path d="M169,90.1a4.3,4.3,0,0,0-3.1-1.2H23a4.7,4.7,0,0,0-4.7,4.7v22.9a4.7,4.7,0,0,0,4.7,4.7H165.9a4.7,4.7,0,0,0,4.7-4.7V93.6A4.5,4.5,0,0,0,169,90.1Zm-7.8,21.7H27.8V98.3H161.2Z" fill="#2a2e34"/></svg>