<svg id="Layer_1" data-name="Layer 1" xmlns="http://www.w3.org/2000/svg" width="4in" height="4in" viewBox="0 0 288 288"><title>testimonial-one</title><path d="M141.6,221.2a62.8,62.8,0,0,1-1.6,12.5H120.1l-2.1-.2-.8-.2h-.7l-1.7-.6h-.5l-2.1-1h-.3a15.5,15.5,0,0,1-3.3-2.4l-.5-.5a2.3,2.3,0,0,1-.7-.7l-.6-.7-.3-.4v-.2a7.6,7.6,0,0,1-1.1-1.6,1.1,1.1,0,0,1-.3-.5,10.2,10.2,0,0,1-.8-1.5c0-.2-.1-.3-.2-.5h0l-.3-.6v-.2h-.1c0-.2-.1-.4-.1-.6h-.1v-.2a.7.7,0,0,1-.1-.5h-.1V188a56.2,56.2,0,0,0,12.3,10.6h.1l2.6,1.6h.2l2.6,1.4h.3l2.7,1.2h.2l2.8,1.1h.2l2.9.9h.2l3,.8h0a55,55,0,0,0,6.9,1.1A79.9,79.9,0,0,1,141.6,221.2Z" fill="none"/><path d="M171.6,140.7c0,18.6-7.7,38.7-15,53.5l-7.9,7.7h-2.3A51.1,51.1,0,0,1,105.6,182c-1.1-1.4-2-2.7-2.9-4.1h0a50.8,50.8,0,0,1-8-26.5v-.7a2.9,2.9,0,0,0-1.2-2.3,2.7,2.7,0,0,0-1.7-.6l-.8.2-1.8.2a6.5,6.5,0,0,1-6.5-6.5V124.3a6.5,6.5,0,0,1,6.5-6.5l1.8.3a2.8,2.8,0,0,0,2.5-.5,3,3,0,0,0,.8-.8,15.7,15.7,0,0,0,11.4-11.5h58.2C169.6,114.2,171.6,124.7,171.6,140.7Z" fill="none"/><path d="M140,233.7a62.8,62.8,0,0,0,1.6-12.5,79.9,79.9,0,0,0-1.4-13.9c2,.2,4.1.4,6.2.4h.9l.2,8.7a44.8,44.8,0,0,0,2.8,14.1A18.3,18.3,0,0,1,140,233.7Z" fill="#ecefd2"/><path d="M187.8,132.7l-.5,1.7a89,89,0,0,0-3.1,14.3,63.2,63.2,0,0,1-19.8,37.9l-7.8,7.6c7.3-14.8,15-34.9,15-53.5,0-16-2-26.5-7.7-35.4h23.4A42.2,42.2,0,0,1,187.8,132.7Z" fill="#ecefd2"/><path d="M99.8,105.3a9.7,9.7,0,0,1-8.3,6.2H83v-6.2Z" fill="#afbd38"/><path d="M229.5,190.4l-9.9,13.3a.1.1,0,0,0-.1.1A120.6,120.6,0,0,0,201,248a69.9,69.9,0,0,0-1.3,12c-24.6-1.1-45.7-20.7-46.5-43.9l-.3-10.4,15.4-14.9a68.5,68.5,0,0,0,21.5-41.4,85.2,85.2,0,0,1,2.9-13.3l.5-1.6a47.7,47.7,0,0,0,.1-29.2h16.1l14.2,14.2C246,141.8,248,165.7,229.5,190.4Z" fill="#afbd38"/><path d="M227.7,115.4l-13.3-13.2a7.4,7.4,0,0,1-5,3.1l14.2,14.2c22.4,22.3,24.4,46.2,5.9,70.9l-9.9,13.3a.1.1,0,0,0-.1.1A120.6,120.6,0,0,0,201,248a69.9,69.9,0,0,0-1.3,12c-24.6-1.1-45.7-20.7-46.5-43.9l-.3-10.4,15.4-14.9a68.5,68.5,0,0,0,21.5-41.4,85.2,85.2,0,0,1,2.9-13.3l.5-1.6a47.7,47.7,0,0,0,.1-29.2h-6a42.2,42.2,0,0,1,.5,27.4l-.5,1.7a89,89,0,0,0-3.1,14.3,63.2,63.2,0,0,1-19.8,37.9l-7.8,7.6-7.9,7.7h-2.3A51.1,51.1,0,0,1,105.6,182c-1.1-1.4-2-2.7-2.9-4.1h0a50.8,50.8,0,0,1-8-26.5v-.7a2.9,2.9,0,0,0-1.2-2.3,2.7,2.7,0,0,0-1.7-.6l-.8.2-1.8.2a6.5,6.5,0,0,1-6.5-6.5V124.3a6.5,6.5,0,0,1,6.5-6.5l1.8.3a2.8,2.8,0,0,0,2.5-.5,3,3,0,0,0,.8-.8,15.7,15.7,0,0,0,11.4-11.5H99.8a9.7,9.7,0,0,1-8.3,6.2H83v-6.2H77.3v9.2a2.9,2.9,0,0,0,2.1,2.7,12,12,0,0,0-2.4,7.2v17.3a12.2,12.2,0,0,0,12.1,12.2,57.4,57.4,0,0,0,8.4,26.4v28.9L61.3,219.2a28.9,28.9,0,0,0-21,27.7v25.5a2.9,2.9,0,0,0,2.8,2.8H219a2.8,2.8,0,0,0,2.8-2.8V247a28.6,28.6,0,0,0-8.4-20.3,110.4,110.4,0,0,1,10.8-19.6l9.9-13.3c9.1-12.2,13.6-24.4,13.6-36.3C247.7,143,241,128.8,227.7,115.4ZM103.2,188a56.2,56.2,0,0,0,12.3,10.6h.1l2.6,1.6h.2l2.6,1.4h.3l2.7,1.2h.2l2.8,1.1h.2l2.9.9h.2l3,.8h0a55,55,0,0,0,6.9,1.1c2,.2,4.1.4,6.2.4h.9l.2,8.7a44.8,44.8,0,0,0,2.8,14.1,18.3,18.3,0,0,1-10.3,3.3H120.1l-2.1-.2-.8-.2h-.7l-1.7-.6h-.5l-2.1-1h-.3a15.5,15.5,0,0,1-3.3-2.4l-.5-.5a2.3,2.3,0,0,1-.7-.7l-.6-.7-.3-.4v-.2a7.6,7.6,0,0,1-1.1-1.6,1.1,1.1,0,0,1-.3-.5,10.2,10.2,0,0,1-.8-1.5c0-.2-.1-.3-.2-.5h0l-.3-.6v-.2h-.1c0-.2-.1-.4-.1-.6h-.1v-.2a.7.7,0,0,1-.1-.5h-.1V188Z" fill="#231f20"/><path d="M202.2,65.2c0-28.9-18.4-52.4-41.1-52.4H124.8c-22.7,0-41.1,23.5-41.1,52.4v7H202.2Z" fill="#231f20"/><path d="M215.5,87.1V98.4a7,7,0,0,1-1.1,3.8,7.4,7.4,0,0,1-5,3.1H77.3a6.9,6.9,0,0,1-5.8-6.8V87.1a6.9,6.9,0,0,1,6.9-7H208.5A7,7,0,0,1,215.5,87.1Z" fill="#231f20"/></svg>