<svg id="Layer_1" data-name="Layer 1" xmlns="http://www.w3.org/2000/svg" width="4in" height="4in" viewBox="0 0 288 288"><title>testimonial-two</title><path d="M193.5,88.2a45.2,45.2,0,0,1,.6,7.4v39c0,24.4-16.8,44.9-39.7,51.2a35.7,35.7,0,0,1-4.7,1.1c8.4-14.2,20.9-39.8,20.9-62.9,0-16.4-2.3-26.9-8.7-35.8" fill="none"/><path d="M170.1,189v22.9a20.4,20.4,0,0,1-16.3,8.2h-2.5a70.6,70.6,0,0,0,1.8-13.9,70.7,70.7,0,0,0-1.1-12.1A54.8,54.8,0,0,0,170.1,189Z" fill="#ecefd2"/><path d="M194.1,95.6v39c0,24.4-16.8,44.9-39.7,51.2h0a2.1,2.1,0,0,1-2.4-3c8.2-14.7,18.6-37.7,18.6-58.8,0-14.5-1.8-24.5-6.7-32.8a2,2,0,0,1,1.8-3h26a2,2,0,0,1,2.1,1.8A51.2,51.2,0,0,1,194.1,95.6Z" fill="#ecefd2"/><path d="M118.1,181.5a45.5,45.5,0,0,1-6.2-4.3Z" fill="#231f20"/><path d="M238.8,234.9V260H49.2V234.8a25.7,25.7,0,0,1,18.7-24.7L106,199.3v.5a27.7,27.7,0,0,0,.3,3.9,1.3,1.3,0,0,1,.1.6c.1.3.1.6.2.9s.1.6.2.9l.3,1.1c0,.1,0,.1.1.2a2.9,2.9,0,0,0,.2.9v.2c.1.4.3.7.4,1.1l.4.9a15,15,0,0,0,1.1,2.2,5.9,5.9,0,0,0,.4.8c.5.7.9,1.4,1.6,2.3v.2l.6.7.8.9,1,1.1.8.8a26.9,26.9,0,0,0,4.7,3.4l.6.3a20.2,20.2,0,0,0,3,1.4l.7.3,2.5.7,1.1.3,1.2.2a15.3,15.3,0,0,0,3,.3h22.3a26.6,26.6,0,0,0,26.6-26.6v-.5L220,210.2A25.6,25.6,0,0,1,238.8,234.9Z" fill="#afbd38"/><path d="M221.6,204l-43.5-11.9a3.1,3.1,0,0,0-2.3.3v-7.7a57.8,57.8,0,0,0,25.9-44.3,10.1,10.1,0,0,0,9.2-10V109a10,10,0,0,0-3-7.1,9.5,9.5,0,0,0-6.1-2.9V96.7a48,48,0,0,0-.7-8.5h2.7l.6-5.6c2-21.1-6-42-21.3-53.6-5.9-4.4-12.5-7.3-19.5-7.3H126.1c-10.1,0-19.4,6.8-26.7,15.1C88.8,49,83.7,66.3,85.4,83.5l.4,4.7h2a59.7,59.7,0,0,0-.6,8.5v2.1a12.1,12.1,0,0,0-12,12.1v17.3a12,12,0,0,0,12,12h.1a57.6,57.6,0,0,0,8.8,27.3,43.7,43.7,0,0,0,3.1,4.4,57.4,57.4,0,0,0,9.8,9.9V192h-.6L66.2,204a32,32,0,0,0-23.4,30.8v28.4a3.2,3.2,0,0,0,3.2,3.2H242a3.2,3.2,0,0,0,3.2-3.2V234.9A32.1,32.1,0,0,0,221.6,204ZM103.5,168.6a48.5,48.5,0,0,1-2.8-4,51.6,51.6,0,0,1-8.1-26.7v-.8a2.6,2.6,0,0,0-1.1-2.1,2.5,2.5,0,0,0-1.6-.6h-.8a5.8,5.8,0,0,1-1.9.3,6.6,6.6,0,0,1-6.6-6.6V110.9a6.7,6.7,0,0,1,6.6-6.7,5.8,5.8,0,0,1,1.9.3,2.9,2.9,0,0,0,2.4-.4,2.7,2.7,0,0,0,1.1-2.2V96.7a48,48,0,0,1,.7-8.5H195.7a59.7,59.7,0,0,1,.7,8.5v5.2a2.8,2.8,0,0,0,1,2.1,2.9,2.9,0,0,0,2.4.5l1-.2a4.4,4.4,0,0,1,3.3,1.4,4.5,4.5,0,0,1,1.4,3.3v21.4a4.7,4.7,0,0,1-4.7,4.6h-1.1a2.8,2.8,0,0,0-2.3.5,2.7,2.7,0,0,0-1,2.1,51.9,51.9,0,0,1-78.3,44,45.5,45.5,0,0,1-6.2-4.3A52.6,52.6,0,0,1,103.5,168.6ZM170.1,188v23.9a20.4,20.4,0,0,1-16.3,8.2H131.7l-2.3-.3h-.9l-.8-.2-1.9-.6h-.5a15.8,15.8,0,0,1-2.3-1.1h-.2l-.2-.2a18.3,18.3,0,0,1-3.6-2.6l-.6-.6-.8-.8-.6-.7a2.1,2.1,0,0,1-.4-.6h-.1a14,14,0,0,1-1.2-1.8l-.4-.5a.5.5,0,0,0-.2-.4V185.8a58.1,58.1,0,0,0,29.8,8.3,56.3,56.3,0,0,0,25.6-6.1Zm68.7,72H49.2V234.8a25.7,25.7,0,0,1,18.7-24.7L106,199.3v.5a27.7,27.7,0,0,0,.3,3.9,1.3,1.3,0,0,1,.1.6c.1.3.1.6.2.9s.1.6.2.9l.3,1.1c0,.1,0,.1.1.2a2.9,2.9,0,0,0,.2.9v.2c.1.4.3.7.4,1.1l.4.9a15,15,0,0,0,1.1,2.2,5.9,5.9,0,0,0,.4.8c.5.7.9,1.4,1.6,2.3v.2l.6.7.8.9,1,1.1.8.8a26.9,26.9,0,0,0,4.7,3.4l.6.3a20.2,20.2,0,0,0,3,1.4l.7.3,2.5.7,1.1.3,1.2.2a15.3,15.3,0,0,0,3,.3h22.3a26.6,26.6,0,0,0,26.6-26.6v-.5L220,210.2a25.6,25.6,0,0,1,18.8,24.7Z" fill="#231f20"/></svg>