<svg id="Layer_1" data-name="Layer 1" xmlns="http://www.w3.org/2000/svg" width="4in" height="4in" viewBox="0 0 288 288"><title>testimonial-six</title><path d="M144.2,64.1a2.4,2.4,0,1,1,2.4,2.4A2.4,2.4,0,0,1,144.2,64.1Zm0-7.3a2.4,2.4,0,0,1,4.8,0,2.4,2.4,0,0,1-4.8,0Zm47.5,13.5a2.5,2.5,0,0,1,0,4.9,2.5,2.5,0,1,1,0-4.9Zm-7.8-15a2.4,2.4,0,0,1,2.4,2.4,2.4,2.4,0,0,1-2.4,2.5,2.5,2.5,0,0,1,0-4.9Zm-7.7-7.7a2.4,2.4,0,1,1,0,4.8,2.4,2.4,0,1,1,0-4.8Zm-7.8-7.8a2.5,2.5,0,1,1,0,4.9,2.5,2.5,0,0,1,0-4.9Zm0,7.3a2.5,2.5,0,1,1-2.4,2.4A2.5,2.5,0,0,1,168.4,47.1Zm-7.2-7.3a2.5,2.5,0,1,1-2.5,2.5A2.5,2.5,0,0,1,161.2,39.8Zm-7.3-7.2a2.4,2.4,0,0,1,2.4,2.4,2.4,2.4,0,0,1-2.4,2.4,2.4,2.4,0,0,1-2.4-2.4A2.3,2.3,0,0,1,153.9,32.6Zm0,7.2a2.5,2.5,0,0,1,0,4.9,2.4,2.4,0,0,1-2.4-2.4A2.4,2.4,0,0,1,153.9,39.8Zm-7.3-7.2A2.4,2.4,0,0,1,149,35a2.4,2.4,0,0,1-4.8,0A2.4,2.4,0,0,1,146.6,32.6Zm0,7.2a2.5,2.5,0,1,1-2.4,2.5A2.5,2.5,0,0,1,146.6,39.8Zm-1,7.6a1.7,1.7,0,0,1,1-.3,3.3,3.3,0,0,1,1.4.4h1.1l3,.3a2.3,2.3,0,0,1,1.8-.8,2.6,2.6,0,0,1,2.3,1.6l2.6.7a2.4,2.4,0,0,1,4.8.1,3.3,3.3,0,0,1-.4,1.4,49.3,49.3,0,0,1,10.6,5.8,2.5,2.5,0,0,1,2.4-1.8,2.4,2.4,0,0,1,2.4,2.4,2.5,2.5,0,0,1-1.4,2.2,47.8,47.8,0,0,1,4.5,4.5,2.5,2.5,0,0,1,2.2-1.4,2.4,2.4,0,0,1,.4,4.8,46.7,46.7,0,0,1,5.8,10.8,2.1,2.1,0,0,1,1.6-.6,2.5,2.5,0,0,1,0,4.9h-.3a6.4,6.4,0,0,0,.2.7c.1.7.3,1.3.4,1.8a2.5,2.5,0,0,1,2.1,2.4,2.4,2.4,0,0,1-1.8,2.3v36.8c0,24.4-16.8,44.9-39.7,51.2a35.7,35.7,0,0,1-4.7,1.1c8.3-14.2,20.9-39.8,20.9-62.9,0-16.6-4.5-36.3-12.5-51.3a2.4,2.4,0,1,1-2.4-2.8,1.5,1.5,0,0,1,.9.2l-1.7-2.8a2.3,2.3,0,0,1-1.6-2.3h0c-1.3-1.7-2.6-3.4-4-4.9l-.9.2a2.5,2.5,0,0,1-2.4-2.5,2.5,2.5,0,0,1,.1-.8l-1.9-1.6Zm-6.3-14.8a2.4,2.4,0,0,1,2.5,2.4,2.5,2.5,0,0,1-4.9,0A2.4,2.4,0,0,1,139.3,32.6Zm0,7.2a2.5,2.5,0,1,1,0,4.9,2.5,2.5,0,0,1,0-4.9Zm0,7.3a2.5,2.5,0,1,1-2.4,2.4A2.5,2.5,0,0,1,139.3,47.1Zm0,7.3a2.5,2.5,0,0,1,2.5,2.4,2.4,2.4,0,0,1-2.5,2.4,2.4,2.4,0,0,1-2.4-2.4A2.4,2.4,0,0,1,139.3,54.4Zm0,7.3a2.4,2.4,0,1,1-2.4,2.4A2.5,2.5,0,0,1,139.3,61.7ZM132,32.6a2.4,2.4,0,0,1,2.5,2.4,2.5,2.5,0,0,1-4.9,0A2.4,2.4,0,0,1,132,32.6Zm0,7.2a2.5,2.5,0,1,1,0,4.9,2.5,2.5,0,0,1,0-4.9Zm0,7.3a2.5,2.5,0,1,1-2.4,2.4A2.5,2.5,0,0,1,132,47.1Zm0,7.3a2.5,2.5,0,0,1,2.5,2.4,2.4,2.4,0,0,1-2.5,2.4,2.4,2.4,0,0,1-2.4-2.4A2.4,2.4,0,0,1,132,54.4Zm0,7.3a2.4,2.4,0,1,1-2.4,2.4A2.5,2.5,0,0,1,132,61.7Zm-7.2-21.9a2.5,2.5,0,1,1-2.5,2.5A2.5,2.5,0,0,1,124.8,39.8Zm0,7.3a2.5,2.5,0,0,1,0,4.9,2.5,2.5,0,1,1,0-4.9Zm0,7.3a2.4,2.4,0,0,1,2.4,2.4,2.4,2.4,0,0,1-2.4,2.4,2.4,2.4,0,0,1-2.5-2.4A2.5,2.5,0,0,1,124.8,54.4Zm0,7.3a2.4,2.4,0,1,1-2.5,2.4A2.4,2.4,0,0,1,124.8,61.7Zm-6.4-21a2.5,2.5,0,1,1-2.4,2.5A2.5,2.5,0,0,1,118.4,40.7Zm0,7.3a2.5,2.5,0,1,1-2.4,2.5A2.5,2.5,0,0,1,118.4,48Zm0,7.3a2.5,2.5,0,1,1-2.4,2.4A2.4,2.4,0,0,1,118.4,55.3Zm0,7.3a2.4,2.4,0,0,1,2.4,2.4,2.4,2.4,0,0,1-4.8,0A2.4,2.4,0,0,1,118.4,62.6ZM99.3,92a2.4,2.4,0,0,1-2.4-2.4,2.3,2.3,0,0,1,2.4-2.4,2.4,2.4,0,0,1,2.4,2.4A2.4,2.4,0,0,1,99.3,92Zm0-7.3a2.4,2.4,0,1,1,0-4.8,2.4,2.4,0,1,1,0,4.8Zm0-7.3A2.3,2.3,0,0,1,96.9,75a2.4,2.4,0,0,1,2.4-2.4,2.4,2.4,0,0,1,2.4,2.4A2.4,2.4,0,0,1,99.3,77.4Zm0-8.4a2.4,2.4,0,0,1-2.4-2.5,2.4,2.4,0,0,1,2.4-2.4,2.5,2.5,0,0,1,0,4.9Zm6.1,15.7a2.4,2.4,0,1,1,2.4-2.4A2.5,2.5,0,0,1,105.4,84.7Zm-2.5-9.8a2.4,2.4,0,0,1,2.4-2.4,2.5,2.5,0,0,1,0,4.9A2.4,2.4,0,0,1,102.9,74.9Zm2.8-6.1a2.5,2.5,0,0,1-2.5-2.4,2.4,2.4,0,0,1,2.5-2.4,2.4,2.4,0,0,1,2.4,2.4A2.4,2.4,0,0,1,105.7,68.8Zm0-6.8a2.5,2.5,0,1,1,2.4-2.4A2.5,2.5,0,0,1,105.7,62ZM112,48.9a2.5,2.5,0,1,1,0,4.9,2.5,2.5,0,0,1,0-4.9Zm0,7.3a2.5,2.5,0,1,1-2.4,2.4A2.5,2.5,0,0,1,112,56.2Zm0,7.3a2.5,2.5,0,0,1,2.5,2.4,2.4,2.4,0,0,1-2.5,2.4,2.4,2.4,0,0,1-2.4-2.4A2.4,2.4,0,0,1,112,63.5Zm-.1,110a52,52,0,0,1-8.4-8.5c-1-1.4-2-2.7-2.8-4.1a51.3,51.3,0,0,1-8.1-27.4,2.8,2.8,0,0,0-1-2.1h-.1a2.9,2.9,0,0,0-2.4-.4,6.1,6.1,0,0,1-4-.1,7,7,0,0,1-4.5-6.6V107.5a6.9,6.9,0,0,1,5.6-6.9,9.3,9.3,0,0,1,2.9.2,2.6,2.6,0,0,0,2.4-.4,2.7,2.7,0,0,0,.9-1.2h.5a2.4,2.4,0,0,0,2.4-2.4,2.4,2.4,0,0,0-2.4-2.5h-.3V92h.3a2.4,2.4,0,0,0,2.4-2.4,2.3,2.3,0,0,0-2.4-2.4h-.2V84.7h.2a2.4,2.4,0,0,0,0-4.8h0a21.1,21.1,0,0,1,.2-2.5A2.3,2.3,0,0,0,95.3,75a2.5,2.5,0,0,0-1.6-2.3A51.5,51.5,0,0,1,97.4,61a2.3,2.3,0,0,0,1.9,1,2.4,2.4,0,0,0,2.4-2.4,2.5,2.5,0,0,0-2.4-2.5,58.2,58.2,0,0,1,4.4-6.6,2.8,2.8,0,0,0-.1.9,2.4,2.4,0,0,0,2.4,2.4,2.5,2.5,0,0,0,0-4.9,2.5,2.5,0,0,0-1.3.4,42.3,42.3,0,0,1,5.1-5.3,2.4,2.4,0,0,0,2.2,1.6,2.4,2.4,0,0,0,1.3-4.5,52.4,52.4,0,0,1,9.1-5.5,2.5,2.5,0,0,0,2.4,1.8,2.4,2.4,0,0,0,2.4-2.4,1.6,1.6,0,0,0-.4-1.2,52.1,52.1,0,0,1,33-.8,2.6,2.6,0,0,0-1.1,2,2.5,2.5,0,0,0,4.9,0c0-.3-.1-.5-.1-.7l2.6,1.1a2.3,2.3,0,0,0,2.3,2,2.7,2.7,0,0,0,1.2-.3,50,50,0,0,1,5.4,3.5,2.4,2.4,0,0,0-1.2,2.1,2.3,2.3,0,0,0,2.4,2.4,2.4,2.4,0,0,0,2.3-1.7,53.2,53.2,0,0,1,4.8,4.7,2.4,2.4,0,0,0-1.8,2.4,2.4,2.4,0,0,0,2.4,2.4,2.6,2.6,0,0,0,2.2-1.3c1.2,1.7,2.4,3.5,3.5,5.4a1.7,1.7,0,0,0-.4,1.2,2.5,2.5,0,0,0,2.2,2.4c.4.9.8,1.7,1.1,2.6l-.9-.2a2.5,2.5,0,1,0,2.1,3.7,50.9,50.9,0,0,1,2.4,14.2c.2,5.4.3,10.2.3,12.2v5.1a2.8,2.8,0,0,0,1,2.1,2.9,2.9,0,0,0,2.4.5h1a4.6,4.6,0,0,1,4.7,4.6v21.1a4.8,4.8,0,0,1-4,4.9,3.7,3.7,0,0,1-1.8-.1,2.8,2.8,0,0,0-2.3.5,2.8,2.8,0,0,0-1,2.1A52,52,0,0,1,144.5,185a51,51,0,0,1-26.4-7.2" fill="none"/><path d="M152,190.5a86.5,86.5,0,0,1-9.2.5,48.9,48.9,0,0,1-28.1-8.5v23.1l.2.4h.1l.3.4a9.4,9.4,0,0,0,1.2,1.8v.2l.4.5.6.7a6,6,0,0,0,.8.8l.6.6a20.7,20.7,0,0,0,3.7,2.7h.4l2.2,1.1h.5a7,7,0,0,0,1.9.6l.8.2,1,.2,2.2.2h19.6a69.7,69.7,0,0,0,1.8-13.8A68.9,68.9,0,0,0,152,190.5Z" fill="none"/><path d="M152,190.5a68.9,68.9,0,0,1,1.1,12.1,69.7,69.7,0,0,1-1.8,13.8h2.5a20.2,20.2,0,0,0,16.3-8.2V185.3A57.1,57.1,0,0,1,152,190.5Z" fill="#ecefd2"/><path d="M145.6,47.4l-3.2-.3,1.9,1.6A2.1,2.1,0,0,1,145.6,47.4Z" fill="#ecefd2"/><path d="M149,49.5a2.3,2.3,0,0,1-1.5,2.3c1.4,1.5,2.7,3.2,4,4.9a2.3,2.3,0,0,1,2.4-2.3,2.4,2.4,0,0,1,2.4,2.4,2.4,2.4,0,0,1-2.4,2.4h-.8l1.7,2.8a2.3,2.3,0,0,1,1.5,2.2v.4c8,15,12.5,34.7,12.5,51.3,0,23.1-12.6,48.7-20.9,62.9a35.7,35.7,0,0,0,4.7-1.1c22.9-6.3,39.7-26.8,39.7-51.2V89.6h-.6a2.4,2.4,0,1,1,0-4.8h.3c-.1-.5-.3-1.1-.4-1.8a6.4,6.4,0,0,1-.2-.7,2.4,2.4,0,0,1-2.2-2.4,2.6,2.6,0,0,1,.9-1.8,46.7,46.7,0,0,0-5.8-10.8h-.4a2.4,2.4,0,0,1-2.4-2.4,3.6,3.6,0,0,1,.2-1,47.8,47.8,0,0,0-4.5-4.5l-1,.2a2.4,2.4,0,0,1-2.4-2.4v-.6a49.3,49.3,0,0,0-10.6-5.8,2.6,2.6,0,0,1-2,1.1,2.5,2.5,0,0,1-2.5-2.5h.1l-2.6-.7a2.2,2.2,0,0,1,.1.8,2.5,2.5,0,0,1-2.4,2.5,2.4,2.4,0,0,1-2.4-2.5,2.5,2.5,0,0,1,.6-1.6l-3-.3H148A2.6,2.6,0,0,1,149,49.5Zm34.9,20.4a2.4,2.4,0,1,1,0,4.8,2.4,2.4,0,0,1,0-4.8Zm0,7.2a2.4,2.4,0,0,1,2.4,2.5,2.4,2.4,0,0,1-2.4,2.4,2.5,2.5,0,0,1,0-4.9Zm-7.7-15a2.5,2.5,0,0,1,0,4.9,2.4,2.4,0,0,1-2.4-2.4A2.4,2.4,0,0,1,176.2,62.1Zm-7.8-7.7a2.5,2.5,0,0,1,2.5,2.4,2.4,2.4,0,0,1-2.5,2.4,2.4,2.4,0,0,1-2.4-2.4A2.4,2.4,0,0,1,168.4,54.4Zm0,7.3a2.4,2.4,0,1,1-2.4,2.4A2.5,2.5,0,0,1,168.4,61.7Zm-7.2-7.3a2.4,2.4,0,0,1,2.4,2.4,2.4,2.4,0,0,1-2.4,2.4,2.4,2.4,0,0,1-2.5-2.4A2.5,2.5,0,0,1,161.2,54.4Zm0,7.3a2.4,2.4,0,1,1-2.5,2.4A2.4,2.4,0,0,1,161.2,61.7Z" fill="#ecefd2"/><path d="M118.1,177.8a45.5,45.5,0,0,1-6.2-4.3Z" fill="#231f20"/><path d="M220,206.5l-39.6-10.8v.4a26.7,26.7,0,0,1-26.6,26.7H131.6a15.5,15.5,0,0,1-3.1-.3l-1.2-.2-1-.2-2.6-.8-.7-.2-2.9-1.4-.7-.4a22.5,22.5,0,0,1-4.7-3.4l-.8-.8a5.2,5.2,0,0,1-1-1.1l-.8-.8-.6-.8h-.1c-.7-.9-1.1-1.7-1.6-2.4l-.4-.7a25.1,25.1,0,0,1-1.1-2.3,3.6,3.6,0,0,1-.4-.9l-.4-1a.4.4,0,0,0-.1-.3,2.9,2.9,0,0,1-.2-.9c-.1,0-.1-.1-.1-.2l-.3-1c-.1-.4-.1-.7-.2-1s-.1-.6-.2-.9a1.3,1.3,0,0,0-.1-.6,26.1,26.1,0,0,1-.2-3.9v-.4L67.9,206.4a25.8,25.8,0,0,0-18.7,24.7v25.3H238.8V231.3A25.6,25.6,0,0,0,220,206.5Z" fill="#afbd38"/><path d="M221.6,200.4l-43.5-12a3.1,3.1,0,0,0-2.3.3v-7.6a58.1,58.1,0,0,0,25.9-44.4h.5a10.3,10.3,0,0,0,8.7-10.3V105.3a10,10,0,0,0-3-7.1,9.5,9.5,0,0,0-6.1-2.9V93.1c0-2.1-.1-6.9-.3-12.4a57.1,57.1,0,0,0-114.1,0c-.1,5.5-.2,10.3-.2,12.4v2.1H85.4a12.3,12.3,0,0,0-10.2,12.2v16.7a12.1,12.1,0,0,0,8.2,11.7,10.7,10.7,0,0,0,3.9.7,57.2,57.2,0,0,0,8.8,27.2l3.1,4.5a56.8,56.8,0,0,0,9.8,9.8v10.2h-.6L66.2,200.3a32.1,32.1,0,0,0-23.4,30.8v28.4a3.2,3.2,0,0,0,3.2,3.2H242a3.2,3.2,0,0,0,3.2-3.2V231.3A32.1,32.1,0,0,0,221.6,200.4ZM103.5,165c-1-1.4-2-2.7-2.8-4.1a51.3,51.3,0,0,1-8.1-27.4,2.8,2.8,0,0,0-1-2.1h-.1a2.9,2.9,0,0,0-2.4-.4,6.1,6.1,0,0,1-4-.1,7,7,0,0,1-4.5-6.6V107.5a6.9,6.9,0,0,1,5.6-6.9,9.3,9.3,0,0,1,2.9.2,2.6,2.6,0,0,0,2.4-.4,2.7,2.7,0,0,0,.9-1.2,2.4,2.4,0,0,1-1.9-2.3,2.3,2.3,0,0,1,2.1-2.4V92a2.5,2.5,0,0,1-2.1-2.4,2.4,2.4,0,0,1,2.2-2.4V84.7a2.4,2.4,0,0,1-2.2-2.4,2.4,2.4,0,0,1,2.4-2.4,21.1,21.1,0,0,1,.2-2.5h-.2a2.5,2.5,0,0,1,0-4.9h.8A51.5,51.5,0,0,1,97.4,61a2.4,2.4,0,0,1,1.9-3.9h0a58.2,58.2,0,0,1,4.4-6.6,2.3,2.3,0,0,1,1-1.2,42.3,42.3,0,0,1,5.1-5.3,1.9,1.9,0,0,1-.2-.8,2.4,2.4,0,0,1,2.4-2.4,2.8,2.8,0,0,1,1.3.3,52.4,52.4,0,0,1,9.1-5.5c0-.2-.1-.4-.1-.6a2.4,2.4,0,0,1,2.5-2.4,2.1,2.1,0,0,1,2,1.2,52.1,52.1,0,0,1,33-.8,2.3,2.3,0,0,1,1.4-.4,2.4,2.4,0,0,1,2.3,1.7l2.6,1.1a.8.8,0,0,1-.1-.4,2.4,2.4,0,0,1,2.4-2.4,2.4,2.4,0,0,1,2.5,2.4,2.5,2.5,0,0,1-1.3,2.1,50,50,0,0,1,5.4,3.5,2.7,2.7,0,0,1,1.2-.3,2.4,2.4,0,0,1,2.4,2.4,1.5,1.5,0,0,1-.1.7,53.2,53.2,0,0,1,4.8,4.7h.6a2.4,2.4,0,0,1,2.4,2.5,4.3,4.3,0,0,1-.2,1.1c1.2,1.7,2.4,3.5,3.5,5.4a2.3,2.3,0,0,1,2-1.2,2.4,2.4,0,1,1,0,4.8h-.2c.4.9.8,1.7,1.1,2.6a2.5,2.5,0,0,1,1.6,2.3,2.8,2.8,0,0,1-.4,1.2,50.9,50.9,0,0,1,2.4,14.2c.2,5.4.3,10.2.3,12.2v5.1a2.8,2.8,0,0,0,1,2.1,2.9,2.9,0,0,0,2.4.5h1a4.6,4.6,0,0,1,4.7,4.6v21.1a4.8,4.8,0,0,1-4,4.9,3.7,3.7,0,0,1-1.8-.1,2.8,2.8,0,0,0-2.3.5,2.8,2.8,0,0,0-1,2.1A52,52,0,0,1,144.5,185a51,51,0,0,1-26.4-7.2,45.5,45.5,0,0,1-6.2-4.3A52,52,0,0,1,103.5,165Zm66.6,19.4v23.8a20.2,20.2,0,0,1-16.3,8.2H131.7l-2.2-.2-1-.2-.8-.2-1.9-.5c0-.1-.2-.1-.2-.1h-.3l-2.2-1.1h-.5a24.2,24.2,0,0,1-3.6-2.7l-.6-.6a6,6,0,0,1-.8-.8l-.6-.7-.4-.5v-.2a9.4,9.4,0,0,1-1.2-1.8l-.3-.4h-.1l-.2-.4V182.1a57.2,57.2,0,0,0,29.8,8.3,55.6,55.6,0,0,0,15.7-2.2A51.8,51.8,0,0,0,170.1,184.4Zm68.7,72H49.2V231.1a25.8,25.8,0,0,1,18.7-24.7L106,195.7v.5a26.4,26.4,0,0,0,.3,3.8,1.3,1.3,0,0,1,.1.6c.1.3.1.6.2.9s.1.7.2,1l.3,1.1v.2a3.1,3.1,0,0,0,.2.8.4.4,0,0,1,.1.3l.4,1a3.6,3.6,0,0,0,.4.9,25.1,25.1,0,0,0,1.1,2.3l.4.7a19.9,19.9,0,0,0,1.6,2.4h.1l.6.8.8.8a5.2,5.2,0,0,0,1,1.1l.8.8a22.5,22.5,0,0,0,4.7,3.4l.7.4L123,221l.7.2,2.6.8,1,.2,1.2.2,3.1.4h22.2a26.7,26.7,0,0,0,26.6-26.7v-.4L220,206.5a25.6,25.6,0,0,1,18.8,24.8Z" fill="#231f20"/><path d="M99.3,87.2a2.3,2.3,0,0,0-2.4,2.4A2.4,2.4,0,0,0,99.3,92a2.4,2.4,0,0,0,2.4-2.4A2.4,2.4,0,0,0,99.3,87.2Z" fill="#231f20"/><circle cx="99.3" cy="82.3" r="2.4" fill="#231f20"/><path d="M99.3,72.6A2.4,2.4,0,0,0,96.9,75a2.3,2.3,0,0,0,2.4,2.4,2.4,2.4,0,0,0,2.4-2.4A2.4,2.4,0,0,0,99.3,72.6Z" fill="#231f20"/><path d="M105.4,79.9a2.4,2.4,0,1,0,2.4,2.4A2.5,2.5,0,0,0,105.4,79.9Z" fill="#231f20"/><path d="M105.3,77.4a2.5,2.5,0,0,0,0-4.9,2.4,2.4,0,0,0-2.4,2.4A2.4,2.4,0,0,0,105.3,77.4Z" fill="#231f20"/><path d="M95.3,96.9a2.4,2.4,0,0,0-2.4-2.5h-.3a2.3,2.3,0,0,0-2.1,2.4,2.4,2.4,0,0,0,1.9,2.3h.5A2.4,2.4,0,0,0,95.3,96.9Z" fill="#231f20"/><path d="M95.3,89.6a2.3,2.3,0,0,0-2.4-2.4h-.2a2.4,2.4,0,0,0-2.2,2.4A2.5,2.5,0,0,0,92.6,92h.3A2.4,2.4,0,0,0,95.3,89.6Z" fill="#231f20"/><path d="M95.3,82.3a2.4,2.4,0,0,0-2.4-2.4h0a2.4,2.4,0,0,0-2.4,2.4,2.4,2.4,0,0,0,2.2,2.4h.2A2.4,2.4,0,0,0,95.3,82.3Z" fill="#231f20"/><path d="M95.3,75a2.5,2.5,0,0,0-1.6-2.3h-.8A2.4,2.4,0,0,0,90.5,75a2.4,2.4,0,0,0,2.4,2.4h.2A2.3,2.3,0,0,0,95.3,75Z" fill="#231f20"/><path d="M99.3,64.1a2.4,2.4,0,0,0-2.4,2.4A2.4,2.4,0,0,0,99.3,69a2.5,2.5,0,0,0,0-4.9Z" fill="#231f20"/><path d="M105.7,64a2.4,2.4,0,0,0-2.5,2.4,2.5,2.5,0,0,0,4.9,0A2.4,2.4,0,0,0,105.7,64Z" fill="#231f20"/><path d="M105.7,57.1a2.5,2.5,0,1,0,0,4.9,2.5,2.5,0,0,0,0-4.9Z" fill="#231f20"/><path d="M99.3,62a2.5,2.5,0,0,0,0-4.9h0A2.4,2.4,0,0,0,97.4,61,2.3,2.3,0,0,0,99.3,62Z" fill="#231f20"/><circle cx="112" cy="65.9" r="2.4" fill="#231f20"/><path d="M112,61.1a2.5,2.5,0,1,0,0-4.9,2.5,2.5,0,0,0,0,4.9Z" fill="#231f20"/><circle cx="112" cy="51.4" r="2.4" fill="#231f20"/><path d="M112,45.6a2.4,2.4,0,0,0,1.3-4.5,2.8,2.8,0,0,0-1.3-.4,2.5,2.5,0,0,0-2.4,2.5,2.4,2.4,0,0,0,.2.8A2.4,2.4,0,0,0,112,45.6Z" fill="#231f20"/><path d="M106,53.8a2.5,2.5,0,0,0,0-4.9,2.5,2.5,0,0,0-1.3.4,2.3,2.3,0,0,0-1,1.2,2.8,2.8,0,0,0-.1.9A2.4,2.4,0,0,0,106,53.8Z" fill="#231f20"/><path d="M118.4,67.4a2.4,2.4,0,0,0,2.4-2.4,2.4,2.4,0,1,0-4.8,0A2.4,2.4,0,0,0,118.4,67.4Z" fill="#231f20"/><path d="M118.4,60.2a2.5,2.5,0,1,0-2.4-2.5A2.5,2.5,0,0,0,118.4,60.2Z" fill="#231f20"/><path d="M118.4,52.9a2.5,2.5,0,1,0-2.4-2.4A2.4,2.4,0,0,0,118.4,52.9Z" fill="#231f20"/><path d="M118.4,45.6a2.5,2.5,0,1,0-2.4-2.4A2.4,2.4,0,0,0,118.4,45.6Z" fill="#231f20"/><path d="M124.8,66.5a2.4,2.4,0,1,0-2.5-2.4A2.4,2.4,0,0,0,124.8,66.5Z" fill="#231f20"/><path d="M124.8,59.2a2.4,2.4,0,0,0,2.4-2.4,2.5,2.5,0,0,0-4.9,0A2.4,2.4,0,0,0,124.8,59.2Z" fill="#231f20"/><path d="M124.8,52a2.5,2.5,0,1,0-2.5-2.5A2.5,2.5,0,0,0,124.8,52Z" fill="#231f20"/><path d="M124.8,44.7a2.5,2.5,0,0,0,0-4.9,2.5,2.5,0,1,0,0,4.9Z" fill="#231f20"/><path d="M124.8,37.4a2.4,2.4,0,0,0,2.4-2.4,2.1,2.1,0,0,0-.3-1.2,2.4,2.4,0,0,0-2.1-1.2,2.4,2.4,0,0,0-2.5,2.4c0,.2.1.4.1.6A2.5,2.5,0,0,0,124.8,37.4Z" fill="#231f20"/><path d="M132,66.5a2.4,2.4,0,1,0-2.4-2.4A2.5,2.5,0,0,0,132,66.5Z" fill="#231f20"/><path d="M132,59.2a2.4,2.4,0,0,0,2.5-2.4,2.5,2.5,0,0,0-4.9,0A2.4,2.4,0,0,0,132,59.2Z" fill="#231f20"/><path d="M132,52a2.5,2.5,0,1,0,0-4.9,2.5,2.5,0,0,0,0,4.9Z" fill="#231f20"/><path d="M132,44.7a2.5,2.5,0,1,0-2.4-2.4A2.5,2.5,0,0,0,132,44.7Z" fill="#231f20"/><path d="M132,37.4a2.5,2.5,0,0,0,2.5-2.4,2.4,2.4,0,0,0-2.5-2.4,2.4,2.4,0,0,0-2.4,2.4A2.4,2.4,0,0,0,132,37.4Z" fill="#231f20"/><circle cx="139.3" cy="64.1" r="2.4" fill="#231f20"/><circle cx="139.3" cy="56.8" r="2.4" fill="#231f20"/><circle cx="139.3" cy="49.5" r="2.4" fill="#231f20"/><circle cx="139.3" cy="42.3" r="2.4" fill="#231f20"/><circle cx="139.3" cy="35" r="2.4" fill="#231f20"/><path d="M149,64.1a2.4,2.4,0,1,0-2.4,2.4A2.4,2.4,0,0,0,149,64.1Z" fill="#231f20"/><path d="M146.6,59.2a2.4,2.4,0,0,0,2.4-2.4,2.4,2.4,0,0,0-4.8,0A2.4,2.4,0,0,0,146.6,59.2Z" fill="#231f20"/><path d="M144.3,48.7a2.5,2.5,0,0,0-.1.8,2.5,2.5,0,0,0,2.4,2.5l.9-.2a2.3,2.3,0,0,0,1.5-2.3,2.6,2.6,0,0,0-1-2,3.3,3.3,0,0,0-1.4-.4,1.7,1.7,0,0,0-1,.3A2.1,2.1,0,0,0,144.3,48.7Z" fill="#231f20"/><path d="M146.6,44.7a2.5,2.5,0,1,0-2.4-2.4A2.4,2.4,0,0,0,146.6,44.7Z" fill="#231f20"/><path d="M146.6,37.4A2.4,2.4,0,0,0,149,35a2.4,2.4,0,0,0-4.8,0A2.4,2.4,0,0,0,146.6,37.4Z" fill="#231f20"/><path d="M154.8,61.9a1.5,1.5,0,0,0-.9-.2,2.4,2.4,0,1,0,2.4,2.8v-.4A2.3,2.3,0,0,0,154.8,61.9Z" fill="#231f20"/><path d="M156.3,56.8a2.4,2.4,0,0,0-2.4-2.4,2.3,2.3,0,0,0-2.4,2.3h0a2.3,2.3,0,0,0,1.6,2.3h.8A2.4,2.4,0,0,0,156.3,56.8Z" fill="#231f20"/><path d="M153.9,52a2.5,2.5,0,0,0,2.4-2.5,2.2,2.2,0,0,0-.1-.8,2.6,2.6,0,0,0-2.3-1.6,2.3,2.3,0,0,0-1.8.8,2.5,2.5,0,0,0-.6,1.6A2.4,2.4,0,0,0,153.9,52Z" fill="#231f20"/><path d="M153.9,44.7a2.5,2.5,0,0,0,0-4.9,2.4,2.4,0,0,0-2.4,2.5A2.4,2.4,0,0,0,153.9,44.7Z" fill="#231f20"/><path d="M153.9,37.4a2.4,2.4,0,0,0,2.4-2.4,2.4,2.4,0,0,0-2.4-2.4,2.3,2.3,0,0,0-2.4,2.4A2.4,2.4,0,0,0,153.9,37.4Z" fill="#231f20"/><circle cx="161.2" cy="64.1" r="2.4" fill="#231f20"/><circle cx="161.2" cy="56.8" r="2.4" fill="#231f20"/><path d="M161.2,52a2.6,2.6,0,0,0,2-1.1,3.3,3.3,0,0,0,.4-1.4,2.4,2.4,0,0,0-4.8-.1h-.1A2.5,2.5,0,0,0,161.2,52Z" fill="#231f20"/><circle cx="161.2" cy="42.3" r="2.4" fill="#231f20"/><path d="M158.7,35a2.5,2.5,0,0,0,4.9,0c0-.3-.1-.5-.1-.7a2.4,2.4,0,0,0-2.3-1.7,2.3,2.3,0,0,0-1.4.4A2.6,2.6,0,0,0,158.7,35Z" fill="#231f20"/><path d="M168.4,66.5a2.4,2.4,0,1,0-2.4-2.4A2.5,2.5,0,0,0,168.4,66.5Z" fill="#231f20"/><path d="M168.4,59.2a2.4,2.4,0,0,0,2.5-2.4,2.5,2.5,0,0,0-4.9,0A2.4,2.4,0,0,0,168.4,59.2Z" fill="#231f20"/><path d="M168.4,52a2.5,2.5,0,1,0,0-4.9,2.5,2.5,0,0,0,0,4.9Z" fill="#231f20"/><path d="M168.4,44.7a2.5,2.5,0,1,0-2.4-2.4A2.5,2.5,0,0,0,168.4,44.7Z" fill="#231f20"/><path d="M168.4,37.4a2.4,2.4,0,0,0,1.2-.3,2.5,2.5,0,0,0,1.3-2.1,2.4,2.4,0,0,0-2.5-2.4A2.4,2.4,0,0,0,166,35a.8.8,0,0,0,.1.4A2.3,2.3,0,0,0,168.4,37.4Z" fill="#231f20"/><path d="M176.2,67a2.5,2.5,0,0,0,0-4.9,2.4,2.4,0,0,0-2.4,2.5A2.4,2.4,0,0,0,176.2,67Z" fill="#231f20"/><path d="M176.2,59.7l1-.2a2.5,2.5,0,0,0,1.4-2.2,2.4,2.4,0,0,0-2.4-2.4,2.5,2.5,0,0,0-2.4,1.8v.6A2.4,2.4,0,0,0,176.2,59.7Z" fill="#231f20"/><circle cx="176.2" cy="50" r="2.4" fill="#231f20"/><path d="M173.8,42.7a2.3,2.3,0,0,0,2.4,2.4,2.4,2.4,0,0,0,2.3-1.7,1.7,1.7,0,0,0,.1-.7,2.4,2.4,0,0,0-2.4-2.4,2.7,2.7,0,0,0-1.2.3A2.4,2.4,0,0,0,173.8,42.7Z" fill="#231f20"/><path d="M183.9,82a2.4,2.4,0,0,0,2.4-2.4,2.4,2.4,0,0,0-2.4-2.5,2.5,2.5,0,0,0,0,4.9Z" fill="#231f20"/><path d="M183.9,74.7a2.4,2.4,0,1,0,0-4.8,2.4,2.4,0,0,0,0,4.8Z" fill="#231f20"/><path d="M183.9,67.4h.4a2.4,2.4,0,0,0-.4-4.8,2.5,2.5,0,0,0-2.2,1.4,3.6,3.6,0,0,0-.2,1A2.4,2.4,0,0,0,183.9,67.4Z" fill="#231f20"/><path d="M183.9,60.2a2.4,2.4,0,0,0,2.4-2.5,2.4,2.4,0,0,0-2.4-2.4,2.5,2.5,0,0,0,0,4.9Z" fill="#231f20"/><path d="M181.5,50.5a2.4,2.4,0,0,0,2.4,2.4,2.9,2.9,0,0,0,2.2-1.3,4.3,4.3,0,0,0,.2-1.1,2.4,2.4,0,0,0-2.4-2.5h-.6A2.4,2.4,0,0,0,181.5,50.5Z" fill="#231f20"/><path d="M189.2,87.3a2.5,2.5,0,0,0,2.5,2.4h.6a2.4,2.4,0,0,0,1.8-2.3,2.5,2.5,0,0,0-2.1-2.4h-.3A2.5,2.5,0,0,0,189.2,87.3Z" fill="#231f20"/><path d="M189.2,80a2.4,2.4,0,0,0,2.2,2.4h.3a2.5,2.5,0,0,0,0-4.9,2.1,2.1,0,0,0-1.6.6A2.6,2.6,0,0,0,189.2,80Z" fill="#231f20"/><path d="M191.7,75.2a2.5,2.5,0,1,0-2.5-2.5A2.5,2.5,0,0,0,191.7,75.2Z" fill="#231f20"/><path d="M189.2,65.5a2.5,2.5,0,0,0,2.5,2.4,2.4,2.4,0,0,0,2-1.2,2.8,2.8,0,0,0,.4-1.2,2.4,2.4,0,0,0-1.6-2.3l-.8-.2A2.5,2.5,0,0,0,189.2,65.5Z" fill="#231f20"/><path d="M191.4,60.6h.3a2.4,2.4,0,0,0,2.4-2.4,2.4,2.4,0,0,0-2.4-2.4,2.4,2.4,0,0,0-2.1,1.2,2.1,2.1,0,0,0-.4,1.2A2.5,2.5,0,0,0,191.4,60.6Z" fill="#231f20"/></svg>