<svg id="Layer_1" data-name="Layer 1" xmlns="http://www.w3.org/2000/svg" width="4in" height="4in" viewBox="0 0 288 288"><title>testimonial-one_1</title><path d="M153.1,209.7a70.6,70.6,0,0,1-1.8,13.9H131.7l-2.3-.3h-.9l-.8-.2-1.9-.6h-.5a15.8,15.8,0,0,1-2.3-1.1h-.4a18.3,18.3,0,0,1-3.6-2.6l-.6-.6-.8-.8-.6-.7a2.1,2.1,0,0,1-.4-.6h-.1l-1.2-1.7c0-.1,0-.1-.1-.1a.5.5,0,0,0-.2-.4c0-.1,0-.1-.1-.2l-.2-.3V189.6a47.6,47.6,0,0,0,28.1,8.6,65.6,65.6,0,0,0,9.2-.6A70.7,70.7,0,0,1,153.1,209.7Z" fill="none"/><path d="M170.1,192.5v22.9a20.4,20.4,0,0,1-16.3,8.2h-2.5a70.6,70.6,0,0,0,1.8-13.9,70.7,70.7,0,0,0-1.1-12.1A54.8,54.8,0,0,0,170.1,192.5Z" fill="#ecefd2"/><path d="M238.8,238.4v25.1H49.2V238.3a25.7,25.7,0,0,1,18.7-24.7L106,202.8v.5a27.7,27.7,0,0,0,.3,3.9,1.1,1.1,0,0,1,.1.5c.1.3.1.6.2,1s.1.6.2.9l.3,1.1c0,.1,0,.1.1.2a2.9,2.9,0,0,0,.2.9v.2c.1.4.3.7.4,1.1l.4.9a16.3,16.3,0,0,0,1.1,2.3l.5.7,1.5,2.3v.2l.6.7.8.9,1,1.1.8.7a23,23,0,0,0,4.7,3.5l.6.3a20.2,20.2,0,0,0,3,1.4l.7.3,2.5.7,1.1.3,1.2.2,3,.3h22.3a26.6,26.6,0,0,0,26.6-26.6v-.5L220,213.6A25.8,25.8,0,0,1,238.8,238.4Z" fill="#555d6b"/><path d="M167.6,109.1a120.2,120.2,0,0,1,1.1,15.5c0,23.1-12.5,48.7-20.8,62.9a35.7,35.7,0,0,0,4.7-1.1c22.9-6.3,39.7-26.8,39.7-51.2V110.4A103.7,103.7,0,0,1,167.6,109.1Z" fill="#ecefd2"/><path d="M86.1,137.4c-2.8-1.2-4.5-3.8-5-7.8a1.9,1.9,0,0,0-.1-.8h.1a2.9,2.9,0,0,1,.3,1C81.9,133.6,83.5,136.1,86.1,137.4Z" fill="#231f20"/><path d="M93.3,141.8c0-.2-.1-.3-.1-.5a.3.3,0,0,0-.1-.2h0a2.7,2.7,0,0,0-1.6-2.5,2.7,2.7,0,0,1,1.9,2.2A3.7,3.7,0,0,1,93.3,141.8Z" fill="#231f20"/><path d="M93.6,144.1a5.6,5.6,0,0,0-.4-1.2v-1.6c0,.2.1.3.1.5a1.4,1.4,0,0,1,.2.7v1.6Z" fill="#231f20"/><path d="M114.5,189.2h0Z" fill="#231f20"/><path d="M115.5,41.7h0a13,13,0,0,1-.7,3.3L94.5,107.9,76.3,125.5h-.1a3.4,3.4,0,0,0-.9,1.9,24.8,24.8,0,0,0,.2,2.9c1,7.4,5.3,12.2,12.1,13.3v.7c1.2,14.9,8,28,20.9,39.8-2.7.2-6.2.7-11,1.3-6.6.8-18.7,2.5-29.7,4.5-6-51.5,7.7-128.3,17-143.6,7.3-12,20.5-13.4,26.1-13.4h1.7A12.2,12.2,0,0,1,115.5,41.7Z" fill="#afbd38"/><path d="M216.8,196.6c-7.3-1.9-25.1-6.7-38.4-10.5a130.1,130.1,0,0,0,14-14.1h0v-.2c5.5-7.1,8-14.1,9.5-26.7a10.5,10.5,0,0,0,5.8-3c4.5-4.7,4.3-13.1,4.1-18.6v-2.4c-.1-7-.4-13.5-4.1-16.8-1.9-1.7-4.3-2.3-7.3-2l-1.5.2h-.2l-6.7.5a97.1,97.1,0,0,1-24.5-1.3c-35.5-6.6-43.5-32.5-44.8-37.6,1.7-3.6,7.5-16.9,7.5-24.5a10.3,10.3,0,0,0-.1-1.8,25.7,25.7,0,0,0-1.9-10.1c25.5-7.3,44.7-2.9,56.5,2.2,15.9,6.9,25.3,18,28.6,25.5C223.4,78.1,218,176.8,216.8,196.6Z" fill="#afbd38"/><path d="M221.6,207.5l-43.5-11.9a3.1,3.1,0,0,0-2.3.3v-4.6c17.1,4.9,42.6,11.6,42.9,11.7h.7a2.8,2.8,0,0,0,1.6-.5,2.7,2.7,0,0,0,1.2-2.1c.4-5,8.1-121-3.6-147.4-3.8-8.8-14.2-20.9-31.6-28.4-13.3-5.8-35.3-10.7-64.4-1.2a3.1,3.1,0,0,0-2,2.7,2.9,2.9,0,0,0,1.6,2.6c.3.2,2.1,2,2.3,9.2a8.1,8.1,0,0,1,.1,1.6c0,6.2-5.3,18.7-7.3,22.9a2.9,2.9,0,0,0-.3,1.8,53.1,53.1,0,0,0,8.7,18.6c6.4,8.9,18.7,20.3,40.9,24.4l1,.2a109.4,109.4,0,0,0,24.7,1.2h.1l6.9-.5h1.9a3.5,3.5,0,0,1,2.8.5c2.2,2,2.2,8.6,2.2,12.6v2.5c.2,4.6.3,11.6-2.5,14.5a5.7,5.7,0,0,1-4.2,1.5,2.9,2.9,0,0,0-2.9,2.6c-1.3,13.1-3.5,19.5-8.7,26.2v.2c-3.5,4.4-8.4,9-15.8,15.5l-.8.7-.3.3c-2.3,2.3-12.6,7.4-28.1,7.4-11.9,0-20.1-4.2-24.9-7.7l-.7-.8c-14.7-11.8-22.5-24.9-23.6-39.9h0a5.6,5.6,0,0,0-.4-1.2v-1.6a.3.3,0,0,0-.1-.2h0a2.7,2.7,0,0,0-1.6-2.5l-1.2-.3H88.8a10.7,10.7,0,0,1-2.7-.7c-2.8-1.2-4.5-3.8-5-7.8a1.9,1.9,0,0,0-.1-.8h.1l17.8-17.3a4.2,4.2,0,0,0,.8-1.2l20.5-63.5a18.6,18.6,0,0,0,.9-4.7A17.6,17.6,0,0,0,116,28.3a3.8,3.8,0,0,0-1.7-.8c-1-.1-23.2-2.4-34.3,15.9C74.6,52.3,68.6,77,64.7,106.2c-4.4,33-5.2,64.9-2.2,87.6a3.1,3.1,0,0,0,1.1,1.9,3.4,3.4,0,0,0,1.7.5h.6c14.5-2.9,33.5-5.3,43.1-6.4v5.7h-.6L66.2,207.4a32.2,32.2,0,0,0-23.4,30.9v28.4a3.1,3.1,0,0,0,3.2,3.1H242a3.1,3.1,0,0,0,3.2-3.1V238.4A32.1,32.1,0,0,0,221.6,207.5ZM192.4,172h0v-.2c5.5-7.1,8-14.1,9.5-26.7a10.5,10.5,0,0,0,5.8-3c4.5-4.7,4.3-13.1,4.1-18.6v-2.4c-.1-7-.4-13.5-4.1-16.8-1.9-1.7-4.3-2.3-7.3-2l-1.5.2h-.2l-6.7.5a97.1,97.1,0,0,1-24.5-1.3c-35.5-6.6-43.5-32.5-44.8-37.6,1.7-3.6,7.5-16.9,7.5-24.5a10.3,10.3,0,0,0-.1-1.8,25.7,25.7,0,0,0-1.9-10.1c25.5-7.3,44.7-2.9,56.5,2.2,15.9,6.9,25.3,18,28.6,25.5,10,22.7,4.6,121.4,3.4,141.2-7.3-1.9-25.1-6.7-38.4-10.5A130.1,130.1,0,0,0,192.4,172ZM97.5,185.5c-6.6.8-18.7,2.5-29.7,4.5-6-51.5,7.7-128.3,17-143.6,7.3-12,20.5-13.4,26.1-13.4h1.7a12.2,12.2,0,0,1,2.9,8.6h0a13,13,0,0,1-.7,3.3L94.5,107.9,76.3,125.5h-.1a3.4,3.4,0,0,0-.9,1.9,24.8,24.8,0,0,0,.2,2.9c1,7.4,5.3,12.2,12.1,13.3v.7c1.2,14.9,8,28,20.9,39.8C105.8,184.4,102.3,184.9,97.5,185.5Zm17.2,4.1a47.6,47.6,0,0,0,28.1,8.6,65.6,65.6,0,0,0,9.2-.6,54.8,54.8,0,0,0,18.1-5.1v22.9a20.4,20.4,0,0,1-16.3,8.2H131.7l-2.3-.3h-.9l-.8-.2-1.9-.6h-.5a15.8,15.8,0,0,1-2.3-1.1h-.4a18.3,18.3,0,0,1-3.6-2.6l-.6-.6-.8-.8-.6-.7a2.1,2.1,0,0,1-.4-.6h-.1l-1.2-1.7c0-.1,0-.1-.1-.1a.5.5,0,0,0-.2-.4c0-.1,0-.1-.1-.2l-.2-.3Zm124.1,73.9H49.2V238.3a25.7,25.7,0,0,1,18.7-24.7L106,202.8v.5a27.7,27.7,0,0,0,.3,3.9,1.1,1.1,0,0,1,.1.5c.1.3.1.6.2,1s.1.6.2.9l.3,1.1c0,.1,0,.1.1.2a2.9,2.9,0,0,0,.2.9v.2c.1.4.3.7.4,1.1l.4.9a16.3,16.3,0,0,0,1.1,2.3l.5.7,1.5,2.3v.2l.6.7.8.9,1,1.1.8.7a23,23,0,0,0,4.7,3.5l.6.3a20.2,20.2,0,0,0,3,1.4l.7.3,2.5.7,1.1.3,1.2.2,3,.3h22.3a26.6,26.6,0,0,0,26.6-26.6v-.5L220,213.6a25.8,25.8,0,0,1,18.8,24.8Z" fill="#231f20"/></svg>