<svg id="Layer_1" data-name="Layer 1" xmlns="http://www.w3.org/2000/svg" width="4in" height="4in" viewBox="0 0 288 288"><title>testimonial-four</title><path d="M150.5,195.2a72.6,72.6,0,0,1-8.3.5,48.5,48.5,0,0,1-26.3-7.4,104.6,104.6,0,0,1-1.3,21.1l.3.7h.1l.3.4a14,14,0,0,0,1.2,1.8h.1l.4.6.6.7.8.8.6.6a16.4,16.4,0,0,0,3.7,2.6v.2h.3l2.2,1h.5l1.9.6.8.2h1a16.6,16.6,0,0,0,2.2.3h18.4a71.1,71.1,0,0,0,1.5-12.7A76.6,76.6,0,0,0,150.5,195.2Z" fill="none"/><path d="M183.2,133.4a16.8,16.8,0,0,0-.9-3.2l-.9-3a65.4,65.4,0,0,0-2.9-7,95.1,95.1,0,0,0-9-14.9,2.1,2.1,0,0,0-3.7,1.6,103.6,103.6,0,0,1,1.6,19.8c0,21.7-10.4,43.7-18.6,58.5a2.1,2.1,0,0,0,2.4,3h0A56.3,56.3,0,0,0,178.7,171c.1-.1.1-.2.2-.4C186.6,157.7,185.9,143.9,183.2,133.4Z" fill="#ecefd2"/><path d="M150.5,195.2a76.6,76.6,0,0,1,1.1,12.6,71.1,71.1,0,0,1-1.5,12.7h3.7a20.5,20.5,0,0,0,15.7-7.4V190A56.8,56.8,0,0,1,150.5,195.2Z" fill="#ecefd2"/><path d="M49.2,235.2v9.6c.5-4.4,1-10.4,1.3-17.8A25.1,25.1,0,0,0,49.2,235.2Z" fill="#231f20"/><path d="M90,135.1l.2.3Z" fill="#231f20"/><path d="M90.3,135.6v0Z" fill="#231f20"/><path d="M90.4,136.2h0v.1Z" fill="#231f20"/><path d="M89.3,134.4h0Z" fill="#231f20"/><path d="M89.7,134.7c.1.1.1.2.2.2S89.8,134.8,89.7,134.7Z" fill="#231f20"/><path d="M87.6,133.8h0Z" fill="#231f20"/><path d="M88.9,134.1h0Z" fill="#231f20"/><path d="M88.3,133.9h0Z" fill="#231f20"/><polygon points="90.6 139.6 90.6 139.6 90.6 139.6 90.6 139.6 90.6 139.6 90.6 139.6" fill="#231f20"/><path d="M90.6,139v-.2a2.8,2.8,0,0,1-.1-.9h0A3.8,3.8,0,0,0,90.6,139Z" fill="#231f20"/><path d="M90.6,139.6h0c1.2,15,8.9,28.1,23.7,39.9-14.8-11.8-22.5-24.9-23.7-39.9Z" fill="#231f20"/><path d="M114.5,62.1v0Z" fill="#231f20"/><path d="M116.3,64.3l-.5-.3Z" fill="#231f20"/><path d="M115.7,63.9l-.3-.2Z" fill="#231f20"/><path d="M114.9,63.1c0-.1-.1-.2-.1-.3S114.9,63,114.9,63.1Z" fill="#231f20"/><path d="M115.3,63.6l-.3-.3Z" fill="#231f20"/><path d="M114.7,62.6a.6.6,0,0,1-.1-.4A.6.6,0,0,0,114.7,62.6Z" fill="#231f20"/><path d="M114.5,61.1v.3a.8.8,0,0,1,.1-.4C114.6,61.1,114.6,61.1,114.5,61.1Z" fill="#231f20"/><path d="M114.6,60.8a.4.4,0,0,0,.1-.3A.4.4,0,0,1,114.6,60.8Z" fill="#231f20"/><path d="M53.4,172.6c5.6,41.9,2,70.2.5,79.2,10.5,1.2,31.4,2.1,39.2-4,4.4-3.5,20.2-32.5,16.7-64.6C94.4,170.5,86.2,156.4,84.9,140v-.6h0c-6.7-1.1-11.1-5.9-12.1-13.3a24.8,24.8,0,0,1-.2-2.9,3.4,3.4,0,0,1,.9-1.9h.1l18.2-17.6,20.3-62.9a11.9,11.9,0,0,0-2.2-11.9c-4.1-.3-19.6-.1-27.7,13.3C71,60.3,47,123.9,53.4,172.6Z" fill="#afbd38"/><path d="M179.1,180.2c-1,1.3-2,2.2-2.6,2.9l-.6,8.4,42.3,12.3c1.4-17,6.5-91.4-3.4-113.7-4.9-11.2-12.3-25.7-25.8-38.5C172.5,36.1,151.4,27.8,126.3,27a29.7,29.7,0,0,1,1.5,10.4c0,6.7-4.5,17.7-6.7,22.7,10.3,4.6,45.7,22.4,62.5,57.6C199.2,150.4,185.7,172.3,179.1,180.2Z" fill="#afbd38"/><path d="M223.8,205.1c1.3-15.5,6.9-93-3.8-117.3-5.1-11.7-12.9-26.9-27.1-40.3-18.5-17.4-42.3-26.2-70.7-26.2H121a2.8,2.8,0,0,0-1.3,5.3c.3.3,2.4,2.4,2.4,10.8,0,6.2-5.3,18.7-7.3,23h-.1a.4.4,0,0,1-.1.3V61a.8.8,0,0,0-.1.4v.7a.1.1,0,0,0,.1.1.6.6,0,0,0,.1.4h.1c0,.1.1.2.1.3v.2l.3.3h.1l.3.2a.1.1,0,0,0,.1.1l.5.3c.3.1,26.2,10.4,46.4,32.7a98.8,98.8,0,0,1,15.8,23.2,60,60,0,0,1,2.9,7.1l.9,2.9a16.8,16.8,0,0,1,.9,3.2c2.7,10.5,3.4,24.4-4.4,37.4a43.8,43.8,0,0,1-4.1,5.8,35.2,35.2,0,0,1-2.8,3,3,3,0,0,0-1,1.9v.7l-.6.4c-2.3,2.3-12.6,7.4-28.1,7.4-13.9,0-22.8-5.7-27.1-9.4a4.4,4.4,0,0,0-.8-1.1c-14.8-11.8-22.5-24.9-23.7-39.9h0V139a3.8,3.8,0,0,1-.1-1h0v-1.2h0v-.5c0-.1,0-.2-.1-.2v-.5l-.2-.3v-.2c-.1,0-.1-.1-.2-.2h-.2l-.2-.2-.2-.2H87.6l-1.9-.2c-4.2-.6-6.6-3.4-7.3-8.4v-.8l17.9-17.3a7.5,7.5,0,0,0,.7-1.2l20.5-63.5a18.1,18.1,0,0,0-4.2-18.5,3.8,3.8,0,0,0-1.7-.8c-1-.1-23.2-2.4-34.3,15.9S41.1,123.2,47.8,173.3a327,327,0,0,1,2.9,40.9,32.3,32.3,0,0,0-7.9,21v28.4a3.2,3.2,0,0,0,3.2,3.2H242a3.2,3.2,0,0,0,3.2-3.2V235.3A32.2,32.2,0,0,0,223.8,205.1ZM93.1,247.8c-7.8,6.2-28.7,5.2-39.2,4,1.5-9,5.1-37.3-.5-79.2C47,123.9,71,60.3,82.2,42c8.1-13.4,23.6-13.5,27.7-13.3a12.2,12.2,0,0,1,2.2,11.9L91.8,103.5,73.6,121.1h-.1a3.4,3.4,0,0,0-.9,1.9,24.8,24.8,0,0,0,.2,2.9c1,7.4,5.4,12.2,12.1,13.3h0v.6c1.3,16.4,9.5,30.6,24.9,43.2C113.3,215.3,97.5,244.3,93.1,247.8Zm76.4-34.7a20.5,20.5,0,0,1-15.7,7.4H131.7a16.6,16.6,0,0,1-2.2-.3h-1l-.8-.2-1.9-.6h-.5l-2.2-1h-.3l-.2-.2a18.3,18.3,0,0,1-3.6-2.6l-.6-.6-.8-.8-.6-.7-.4-.6h-.1a14,14,0,0,1-1.2-1.8l-.3-.4h-.1l-.3-.7a104.6,104.6,0,0,0,1.3-21.1,48.5,48.5,0,0,0,26.3,7.4,69.5,69.5,0,0,0,8.2-.5,56.8,56.8,0,0,0,19.1-5.2Zm48.7-9.3-42.3-12.3.6-8.4c.6-.7,1.6-1.6,2.6-2.9,6.6-7.9,20.1-29.8,4.5-62.5-16.8-35.2-52.2-53-62.5-57.5,2.2-5.1,6.7-16.1,6.7-22.8A29.7,29.7,0,0,0,126.3,27c25.1.8,46.2,9.1,62.7,24.6,13.5,12.8,20.9,27.3,25.8,38.5C224.7,112.4,219.6,186.8,218.2,203.8Z" fill="#231f20"/></svg>