<svg id="Layer_1" data-name="Layer 1" xmlns="http://www.w3.org/2000/svg" width="4in" height="4in" viewBox="0 0 288 288"><title>testimonial-three</title><path d="M150.6,218.1a72.1,72.1,0,0,1-1.5,12.7H130.8l-2.3-.2-.9-.2h-.9l-1.9-.6h-.4a9.7,9.7,0,0,1-2.3-1.1h-.4a14.1,14.1,0,0,1-3.7-2.7l-.6-.6-.8-.7-.6-.8a1,1,0,0,1-.4-.5h-.1a14,14,0,0,1-1.2-1.8l-.3-.6a1.6,1.6,0,0,1-.4-.7,104.1,104.1,0,0,0,1.3-21.1,47.6,47.6,0,0,0,26.3,7.5,72.6,72.6,0,0,0,8.3-.5A75.7,75.7,0,0,1,150.6,218.1Z" fill="none"/><path d="M183,173.8c-7,11.9-18.7,20.7-32.8,24.7h0a2,2,0,0,1-2.3-3c8.1-14.8,18.5-36.9,18.5-58.5,0-19.5-4.4-42.2-14.1-57.4a55.3,55.3,0,0,1,8.9,4.2c18.3,10.8,17.8,25.4,17.3,39.5-.3,7.3-.5,14.2,2.2,19.9C186.6,155.7,186.1,165.7,183,173.8Z" fill="#ecefd2"/><path d="M168.5,219v4.3a20.3,20.3,0,0,1-15.7,7.5h-3.7a72.1,72.1,0,0,0,1.5-12.7,75.7,75.7,0,0,0-1.1-12.6,59.2,59.2,0,0,0,15-3.5c-.1,2.8.4,6.7,2.4,12.2Z" fill="#ecefd2"/><path d="M169.3,222.2a4.4,4.4,0,0,1-.8,1.1V219C168.8,220.1,169.1,221.2,169.3,222.2Z" fill="#231f20"/><path d="M237.8,245.6v25.1H48.2v-9.5a26.4,26.4,0,0,0,15.8,6h6.9c12.5,0,20.7-1.6,24.8-4.8s11.9-16.8,16.1-34.3a.1.1,0,0,1,.1.1l1,1,.8.8a27.3,27.3,0,0,0,4.7,3.5l.7.3a25.3,25.3,0,0,0,2.9,1.4l.7.2,2.5.8,1.1.2,1.2.3,3.1.3h22.2a26.1,26.1,0,0,0,18.1-7.2,25.2,25.2,0,0,0,24.2,18.8,20.7,20.7,0,0,0,3.5-.3l11.5-1.6h.2c8-1.6,16.5-6.7,24-14.1A24.7,24.7,0,0,1,237.8,245.6Z" fill="#555d6b"/><path d="M244.2,245.6v28.3A3.1,3.1,0,0,1,241,277H45a3.1,3.1,0,0,1-3.2-3.1V253.8a14.3,14.3,0,0,0,1.4,2,23.5,23.5,0,0,0,5,5.4v9.5H237.8V245.6a24.7,24.7,0,0,0-3.5-12.9,51.1,51.1,0,0,0,4.5-4.8A31.9,31.9,0,0,1,244.2,245.6Z" fill="#231f20"/><path d="M89.4,146.7v-.3h0Z" fill="#231f20"/><polygon points="89.6 149.8 89.6 149.8 89.6 149.8 89.6 149.8 89.6 149.8" fill="#231f20"/><path d="M111.1,50.8a2.8,2.8,0,0,0-.1.9V63.4a15.1,15.1,0,0,1-2.1,7.2L84.2,110.2h-.1L72.3,131.6a3.6,3.6,0,0,0-.7,1.8,26.1,26.1,0,0,0,.2,2.9c1,7.4,5.4,12.2,12.1,13.2v.8c1.3,16.4,9.5,30.5,24.9,43.2,3.5,32.1-12.3,61.1-16.7,64.5-2,1.7-8.4,4.2-27.9,3.5a21.2,21.2,0,0,1-19.3-27.8c3.4-11,4.6-20.5,3.4-28.4-.8-5.8-4.2-10.8-7.5-15.5s-7.5-10.9-7.6-17.5c-.2-9.1,4.9-16.7,10.3-24.7,4.3-6.3,8.7-12.9,10.8-20.6,1.5-5.5,1.5-11.5,1.5-17.2-.1-8.2-.1-16,4.1-21.3,11-13.9,10.7-21.4,10.5-28-.2-4.7-.4-8.7,3.6-15.3s12.1-8.8,19.4-8.8a56.7,56.7,0,0,1,15.3,2.3A11.9,11.9,0,0,1,111.1,50.8Z" fill="#afbd38"/><path d="M254.5,137.1c-.8,3.2-1.6,6.2-2.4,9.1-3,10.8-5.9,20.9-2.5,33.5,2.6,9.5-.5,22.6-8.3,35.1s-21.1,24.2-32.1,26.4l-11.4,1.6a19.3,19.3,0,0,1-21.7-16.1,85.9,85.9,0,0,0-3.8-14.4c-3.2-8.8-1.9-11.8-1.7-12.1s1.8-2,3-3.3c8.4-8.9,26-27.3,12.2-56.1-2.1-4.4-1.9-10.7-1.7-17.3.5-14.3,1.2-32.1-20.1-44.6-8.4-5.1-19-8.2-31.2-9.5a8.9,8.9,0,0,1-6.6-4,9.2,9.2,0,0,1-1.2-7.9,36.6,36.6,0,0,0,1.8-9.8,32.8,32.8,0,0,0-1.4-10.3,8.5,8.5,0,0,1,1.6-8.2c9-10.5,20.6-11.9,32.7-12.4,14.2-.6,25.3.7,34,4.1,6.9,2.6,8.4,5.7,10.4,9.6s3.6,7,8.3,10.6C222.8,49,233.6,59.4,235.2,63l.3.7c2.9,6.5,4.1,9.2,1.3,26.9-1.2,8,4,16,9.1,23.7S256.1,130,254.5,137.1Z" fill="#afbd38"/><path d="M250.7,111.2c-4.7-7.1-9.2-13.9-8.2-19.7,2.8-18.6,1.6-22.5-1.8-30.1l-.3-.6c-2.5-5.7-15.8-17.6-24.5-24.2a22.5,22.5,0,0,1-6.7-8.7c-2.2-4.4-4.6-8.9-13.4-12.3s-21.3-5.1-36.4-4.5c-12.8.6-26.3,2.1-36.7,14.4A14,14,0,0,0,120,39.2a27.8,27.8,0,0,1,1.1,8.5,32.9,32.9,0,0,1-1.6,8.2,14.9,14.9,0,0,0,12.7,19.2,78.6,78.6,0,0,1,20.1,4.5,55.3,55.3,0,0,1,8.9,4.2c18.3,10.8,17.8,25.4,17.3,39.5-.3,7.3-.5,14.2,2.2,19.9,5.9,12.5,5.4,22.5,2.3,30.6s-8.6,14-12.9,18.6l-.8.5c-2.3,2.3-12.6,7.3-28.1,7.3-13.9,0-22.8-5.6-27.1-9.3a4.4,4.4,0,0,0-.8-1.1c-1-.7-1.8-1.5-2.7-2.2-8.5-7.4-14.4-15.3-17.8-23.8l-.9-2.4c-.3-.9-.5-1.7-.7-2.5a12.9,12.9,0,0,1-.6-2.5h0l-.3-1.2a47373149080457.8,47373149080457.8,0,0,1-.4-2.6l-.3-2.6h0V149a1.9,1.9,0,0,1-.1-.8h0v-1.4a.1.1,0,0,0-.1-.1v-.3h0v-.5a.4.4,0,0,1-.1-.3l-.2-.2c0-.1-.1-.1-.1-.2l-.2-.2v-.2l-.3-.2H86.6l-1.9-.2q-6.3-.9-7.2-8.4c-.1-.5-.1-.9-.2-1.2l11.8-21.2,24.5-39.5a18.9,18.9,0,0,0,2.9-10.1V52.2a17.7,17.7,0,0,0-4.3-18,2.6,2.6,0,0,0-1.1-.7,64.2,64.2,0,0,0-16.3-2.8C82.8,30.4,74,34.3,69.2,42.2s-4.7,13.4-4.5,18.5.4,12-9.3,24.3c-5.4,6.9-5.4,16-5.3,24.8,0,5.4,0,11-1.3,15.6-1.9,6.9-6,13.1-10,19.1-5.7,8.3-11.5,17-11.3,27.9.1,8.4,4.6,14.9,8.6,20.6s5.9,8.6,6.6,13.1c1,7-.1,15.7-3.3,25.9a27.2,27.2,0,0,0,2.4,21.8,14.3,14.3,0,0,0,1.4,2,23.5,23.5,0,0,0,5,5.4,26.4,26.4,0,0,0,15.8,6h6.9c12.5,0,20.7-1.6,24.8-4.8s11.9-16.8,16.1-34.3a.1.1,0,0,1,.1.1l1,1,.8.8a27.3,27.3,0,0,0,4.7,3.5l.7.3a25.3,25.3,0,0,0,2.9,1.4l.7.2,2.5.8,1.1.2,1.2.3,3.1.3h22.2a26.1,26.1,0,0,0,18.1-7.2,25.2,25.2,0,0,0,24.2,18.8,20.7,20.7,0,0,0,3.5-.3l11.5-1.6h.2c8-1.6,16.5-6.7,24-14.1a51.1,51.1,0,0,0,4.5-4.8,87.7,87.7,0,0,0,7.4-10.1c8.7-14,11.9-28.4,8.9-39.6s-.5-20,2.4-30.4c.9-3,1.7-6.1,2.5-9.4C262.2,128.9,256.4,119.9,250.7,111.2ZM92.1,258c-2,1.7-8.4,4.2-27.9,3.5a21.2,21.2,0,0,1-19.3-27.8c3.4-11,4.6-20.5,3.4-28.4-.8-5.8-4.2-10.8-7.5-15.5s-7.5-10.9-7.6-17.5c-.2-9.1,4.9-16.7,10.3-24.7,4.3-6.3,8.7-12.9,10.8-20.6,1.5-5.5,1.5-11.5,1.5-17.2-.1-8.2-.1-16,4.1-21.3,11-13.9,10.7-21.4,10.5-28-.2-4.7-.4-8.7,3.6-15.3s12.1-8.8,19.4-8.8a56.7,56.7,0,0,1,15.3,2.3,11.9,11.9,0,0,1,2.4,12.1,2.8,2.8,0,0,0-.1.9V63.4a15.1,15.1,0,0,1-2.1,7.2L84.2,110.2h-.1L72.3,131.6a3.6,3.6,0,0,0-.7,1.8,26.1,26.1,0,0,0,.2,2.9c1,7.4,5.4,12.2,12.1,13.2v.8c1.3,16.4,9.5,30.5,24.9,43.2C112.3,225.6,96.5,254.6,92.1,258Zm76.4-34.7a20.3,20.3,0,0,1-15.7,7.5h-22l-2.3-.2-.9-.2h-.9l-1.9-.6h-.4a9.7,9.7,0,0,1-2.3-1.1h-.4a14.1,14.1,0,0,1-3.7-2.7l-.6-.6-.8-.7-.6-.8a1,1,0,0,1-.4-.5h-.1a14,14,0,0,1-1.2-1.8l-.3-.6a1.6,1.6,0,0,1-.4-.7,104.1,104.1,0,0,0,1.3-21.1,47.6,47.6,0,0,0,26.3,7.5,72.6,72.6,0,0,0,8.3-.5,59.2,59.2,0,0,0,15-3.5c-.1,2.8.4,6.7,2.4,12.2l1.6,4.8c.3,1.1.6,2.2.8,3.2A4.4,4.4,0,0,1,168.5,223.3Zm86-86.2c-.8,3.2-1.6,6.2-2.4,9.1-3,10.8-5.9,20.9-2.5,33.5,2.6,9.5-.5,22.6-8.3,35.1s-21.1,24.2-32.1,26.4l-11.4,1.6a19.3,19.3,0,0,1-21.7-16.1,85.9,85.9,0,0,0-3.8-14.4c-3.2-8.8-1.9-11.8-1.7-12.1s1.8-2,3-3.3c8.4-8.9,26-27.3,12.2-56.1-2.1-4.4-1.9-10.7-1.7-17.3.5-14.3,1.2-32.1-20.1-44.6-8.4-5.1-19-8.2-31.2-9.5a8.9,8.9,0,0,1-6.6-4,9.2,9.2,0,0,1-1.2-7.9,36.6,36.6,0,0,0,1.8-9.8,32.8,32.8,0,0,0-1.4-10.3,8.5,8.5,0,0,1,1.6-8.2c9-10.5,20.6-11.9,32.7-12.4,14.2-.6,25.3.7,34,4.1,6.9,2.6,8.4,5.7,10.4,9.6s3.6,7,8.3,10.6C222.8,49,233.6,59.4,235.2,63l.3.7c2.9,6.5,4.1,9.2,1.3,26.9-1.2,8,4,16,9.1,23.7S256.1,130,254.5,137.1Z" fill="#231f20"/></svg>