<svg id="Layer_1" data-name="Layer 1" xmlns="http://www.w3.org/2000/svg" width="6.3in" height="2.3in" viewBox="0 0 450.2 166.2"><title>van</title><path d="M171.5,151.3h-73a2.9,2.9,0,0,1,0-5.7h73a2.9,2.9,0,0,1,0,5.7Z" fill="#afbd38"/><path d="M351.7,48.5,334.3,28.2A17.4,17.4,0,0,0,321,22.1H290.2V77.6h52.7V54.9h5.8a3.9,3.9,0,0,0,3.6-2.2A4,4,0,0,0,351.7,48.5Zm-9.4.8a5,5,0,0,0-5.1,5V71.9H295.9V27.8H321a11.9,11.9,0,0,1,9,4.2l14.9,17.4Z" fill="#231f20"/><path d="M192.5,165.5a25.6,25.6,0,1,1,25.6-25.6A25.6,25.6,0,0,1,192.5,165.5Zm0-45.5a19.9,19.9,0,1,0,19.9,19.9A20,20,0,0,0,192.5,120Z" fill="#231f20"/><path d="M367.2,165.5a25.6,25.6,0,1,1,25.6-25.6A25.6,25.6,0,0,1,367.2,165.5Zm0-45.5a19.9,19.9,0,1,0,20,19.9A19.9,19.9,0,0,0,367.2,120Z" fill="#231f20"/><path d="M127.6,61.5H55.4a2.9,2.9,0,0,1,0-5.7h72.2a2.9,2.9,0,0,1,0,5.7Z" fill="#afbd38"/><path d="M130.4,74.7H31.6a2.9,2.9,0,0,1,0-5.7h98.8a2.9,2.9,0,1,1,0,5.7Z" fill="#afbd38"/><path d="M127.6,90H6.9a2.8,2.8,0,1,1,0-5.6H127.6a2.8,2.8,0,1,1,0,5.6Z" fill="#afbd38"/><path d="M127.6,105.3H24a2.8,2.8,0,1,1,0-5.6H127.6a2.8,2.8,0,1,1,0,5.6Z" fill="#afbd38"/><path d="M127.6,120.7H52a2.9,2.9,0,0,1,0-5.7h75.6a2.9,2.9,0,0,1,0,5.7Z" fill="#afbd38"/><path d="M119.3,136h-44a2.9,2.9,0,1,1,0-5.7h44a2.9,2.9,0,1,1,0,5.7Z" fill="#afbd38"/><path d="M439.5,107.5H438a48,48,0,0,0-47.9-47.9h-9.4L343.9,21.8A48.7,48.7,0,0,0,309.2,7.2H137.9a10.3,10.3,0,0,0-10.3,10.4V121.1h-3.2a7.2,7.2,0,0,0-7.2,7.2v18.5h37.7a5.4,5.4,0,0,0,5.4-5.6h0v-.2a32.5,32.5,0,1,1,64.9,0v.2h0a5.4,5.4,0,0,0,5.4,5.6h98.9a5.3,5.3,0,0,0,5.4-5.5v-.4a32.5,32.5,0,1,1,64.9,0v.4a5.4,5.4,0,0,0,5.4,5.5h41.2V114.5A6.9,6.9,0,0,0,439.5,107.5Zm1.3,33.6H407.1l-1-.2c0-15.7-11.9-32.1-26.8-36.9-25.3-8-50.6,12.8-50.6,36.9l-2,.2H234.4l-4-.2c0-19.2-10.8-32.1-25.8-36.8C179.3,96,155,113.9,155,140.9l-6,.2H122.9V128.3a1.5,1.5,0,0,1,1.5-1.5h8.8V17.6a4.8,4.8,0,0,1,4.7-4.7H309.2a42.8,42.8,0,0,1,30.6,12.8l38.6,39.6h11.7a42.2,42.2,0,0,1,42.3,42.2v5.7h7.1a1.2,1.2,0,0,1,1.3,1.2Z" fill="#231f20"/><path d="M408.4,85.9h12.7a3.5,3.5,0,0,1,3.5,3.5v9.1a1.4,1.4,0,0,1-1.4,1.4H407.9a1.5,1.5,0,0,1-1.5-1.5V87.9A2,2,0,0,1,408.4,85.9Z" fill="#ecefd2"/><rect x="400.9" y="102.7" width="23.7" height="8.27" rx="1.5" fill="#ecefd2"/><path d="M127.6,39.2h21.9a1.8,1.8,0,0,1,1.8,1.8v6.5a0,0,0,0,1,0,0H127.6a0,0,0,0,1,0,0V39.2A0,0,0,0,1,127.6,39.2Z" transform="translate(182.8 -96.1) rotate(90)" fill="#ecefd2"/><path d="M155,18.4h55.3a0,0,0,0,1,0,0V77.3a2.7,2.7,0,0,1-2.7,2.7h-48a4.6,4.6,0,0,1-4.6-4.6V18.4a0,0,0,0,1,0,0Z" transform="translate(231.8 -133.4) rotate(90)" fill="#ecefd2"/><path d="M228.9,17.4h44.5a5.4,5.4,0,0,1,5.4,5.4V80.9a0,0,0,0,1,0,0H223.5a0,0,0,0,1,0,0V22.8a5.4,5.4,0,0,1,5.4-5.4Z" transform="translate(300.3 -201.9) rotate(90)" fill="#ecefd2"/><path d="M136,19.4h8.6a0,0,0,0,1,0,0v8.3a0,0,0,0,1,0,0h-9.4a.9.9,0,0,1-.9-.9V21.1A1.7,1.7,0,0,1,136,19.4Z" transform="translate(163 -115.9) rotate(90)" fill="#ecefd2"/><path d="M184.2,129.7a3,3,0,0,0-5.1.1c-2.4,3.9-5,10.7-1,18.3,6.4,11.8,18.5,9.4,22.9,5.5s7.5-10-9.3-15.4C188,137,186.6,133.4,184.2,129.7Z" fill="#ecefd2"/><path d="M358.8,129.7a3.1,3.1,0,0,0-5.2.1c-2.3,3.9-5,10.7-.9,18.3,6.3,11.8,18.5,9.4,22.9,5.5s7.4-10-9.4-15.4C362.5,137,361.1,133.4,358.8,129.7Z" fill="#ecefd2"/></svg>